M48
; DRILL file {KiCad 8.0.5} date 2024-10-14T13:24:58-0400
; FORMAT={-:-/ absolute / metric / decimal}
; #@! TF.CreationDate,2024-10-14T13:24:58-04:00
; #@! TF.GenerationSoftware,Kicad,Pcbnew,8.0.5
; #@! TF.FileFunction,Plated,1,2,PTH
FMAT,2
METRIC
; #@! TA.AperFunction,Plated,PTH,ComponentDrill
T1C0.800
; #@! TA.AperFunction,Plated,PTH,ComponentDrill
T2C1.400
%
G90
G05
T1
X129.6Y-58.16
X129.6Y-60.7
X129.6Y-63.24
X129.6Y-65.78
X129.6Y-68.32
X129.6Y-70.86
X129.6Y-73.4
X144.835Y-58.16
X144.835Y-60.7
X144.835Y-63.24
X144.835Y-65.78
X144.835Y-68.32
X144.835Y-70.86
X144.835Y-73.4
T2
X122.5Y-58.34
X122.5Y-60.88
X122.5Y-63.42
X122.5Y-65.96
X122.5Y-68.5
X122.5Y-71.04
X122.5Y-73.58
X152.0Y-58.5
X152.0Y-61.04
X152.0Y-63.58
X152.0Y-66.12
X152.0Y-68.66
X152.0Y-71.2
X152.0Y-73.74
M30
