%TF.GenerationSoftware,KiCad,Pcbnew,8.0.5*%
%TF.CreationDate,2024-10-14T13:25:02-04:00*%
%TF.ProjectId,dev_board,6465765f-626f-4617-9264-2e6b69636164,rev?*%
%TF.SameCoordinates,Original*%
%TF.FileFunction,Copper,L1,Top*%
%TF.FilePolarity,Positive*%
%FSLAX46Y46*%
G04 Gerber Fmt 4.6, Leading zero omitted, Abs format (unit mm)*
G04 Created by KiCad (PCBNEW 8.0.5) date 2024-10-14 13:25:02*
%MOMM*%
%LPD*%
G01*
G04 APERTURE LIST*
%TA.AperFunction,ComponentPad*%
%ADD10O,3.000000X2.100000*%
%TD*%
%TA.AperFunction,ComponentPad*%
%ADD11C,1.600000*%
%TD*%
%TA.AperFunction,SMDPad,CuDef*%
%ADD12R,3.000000X1.600000*%
%TD*%
%TA.AperFunction,SMDPad,CuDef*%
%ADD13R,2.400000X1.200000*%
%TD*%
%TA.AperFunction,SMDPad,CuDef*%
%ADD14C,1.200000*%
%TD*%
%TA.AperFunction,SMDPad,CuDef*%
%ADD15R,3.000000X3.000000*%
%TD*%
%TA.AperFunction,Conductor*%
%ADD16C,0.400000*%
%TD*%
%TA.AperFunction,Conductor*%
%ADD17C,0.200000*%
%TD*%
G04 APERTURE END LIST*
D10*
%TO.P,J10,1,Pin_1*%
%TO.N,A0*%
X122500000Y-58340000D03*
%TO.P,J10,2,Pin_2*%
%TO.N,A1*%
X122500000Y-60880000D03*
%TO.P,J10,3,Pin_3*%
%TO.N,A2*%
X122500000Y-63420000D03*
%TO.P,J10,4,Pin_4*%
%TO.N,A3*%
X122500000Y-65960000D03*
%TO.P,J10,5,Pin_5*%
%TO.N,SDA*%
X122500000Y-68500000D03*
%TO.P,J10,6,Pin_6*%
%TO.N,SCL*%
X122500000Y-71040000D03*
%TO.P,J10,7,Pin_7*%
%TO.N,A6TX*%
X122500000Y-73580000D03*
%TD*%
%TO.P,J9,1,Pin_1*%
%TO.N,A7RX*%
X152000000Y-73740000D03*
%TO.P,J9,2,Pin_2*%
%TO.N,A8*%
X152000000Y-71200000D03*
%TO.P,J9,3,Pin_3*%
%TO.N,A9*%
X152000000Y-68660000D03*
%TO.P,J9,4,Pin_4*%
%TO.N,A10*%
X152000000Y-66120000D03*
%TO.P,J9,5,Pin_5*%
%TO.N,PWR_3V3*%
X152000000Y-63580000D03*
%TO.P,J9,6,Pin_6*%
%TO.N,GND*%
X152000000Y-61040000D03*
%TO.P,J9,7,Pin_7*%
%TO.N,PWR_5V*%
X152000000Y-58500000D03*
%TD*%
D11*
%TO.P,M2,1,D0*%
%TO.N,A0*%
X129600000Y-58160000D03*
D12*
X128600000Y-58160000D03*
D11*
%TO.P,M2,2,D1*%
%TO.N,A1*%
X129600000Y-60700000D03*
D12*
X128600000Y-60700000D03*
D11*
%TO.P,M2,3,D2*%
%TO.N,A2*%
X129600000Y-63240000D03*
D12*
X128600000Y-63240000D03*
D11*
%TO.P,M2,4,D3*%
%TO.N,A3*%
X129600000Y-65780000D03*
D12*
X128600000Y-65780000D03*
D11*
%TO.P,M2,5,D4*%
%TO.N,SDA*%
X129600000Y-68320000D03*
D12*
X128600000Y-68320000D03*
D11*
%TO.P,M2,6,D5*%
%TO.N,SCL*%
X129600000Y-70860000D03*
D12*
X128600000Y-70860000D03*
D11*
%TO.P,M2,7,D6*%
%TO.N,A6TX*%
X129600000Y-73400000D03*
D12*
X128600000Y-73400000D03*
D11*
%TO.P,M2,8,D7*%
%TO.N,A7RX*%
X144835000Y-73400000D03*
D12*
X145835000Y-73400000D03*
D11*
%TO.P,M2,9,D8*%
%TO.N,A8*%
X144835000Y-70860000D03*
D12*
X145835000Y-70860000D03*
D11*
%TO.P,M2,10,D9*%
%TO.N,A9*%
X144835000Y-68320000D03*
D12*
X145835000Y-68320000D03*
D11*
%TO.P,M2,11,D10*%
%TO.N,A10*%
X144835000Y-65780000D03*
D12*
X145835000Y-65780000D03*
D11*
%TO.P,M2,12,3V3*%
%TO.N,PWR_3V3*%
X144835000Y-63240000D03*
D12*
X145835000Y-63240000D03*
D11*
%TO.P,M2,13,GND*%
%TO.N,GND*%
X144835000Y-60700000D03*
D12*
X145835000Y-60700000D03*
D11*
%TO.P,M2,14,5V*%
%TO.N,PWR_5V*%
X144835000Y-58160000D03*
D12*
X145835000Y-58160000D03*
D13*
%TO.P,M2,15,BAT_GND*%
%TO.N,GND*%
X132715000Y-63480000D03*
%TO.P,M2,16,BAT_VIN*%
%TO.N,unconnected-(M2-BAT_VIN-Pad16)*%
X132715000Y-65580000D03*
D14*
%TO.P,M2,17,MTDI*%
%TO.N,MTDI*%
X135945000Y-57100000D03*
%TO.P,M2,18,EN*%
%TO.N,Net-(M2-EN)*%
X135945000Y-59640000D03*
%TO.P,M2,19,MTMS*%
%TO.N,MTMS*%
X135945000Y-62180000D03*
%TO.P,M2,20,MTCK*%
%TO.N,MTCK*%
X138485000Y-62180000D03*
%TO.P,M2,21,GND*%
%TO.N,GND*%
X138485000Y-59640000D03*
%TO.P,M2,22,MTDO*%
%TO.N,MTDO*%
X138485000Y-57100000D03*
%TO.P,M2,23,D-*%
%TO.N,unconnected-(M2-D--Pad23)*%
X135965000Y-64580000D03*
%TO.P,M2,24,D+*%
%TO.N,unconnected-(M2-D+-Pad24)*%
X138465000Y-64580000D03*
D15*
%TO.P,M2,25,THERMAL*%
%TO.N,unconnected-(M2-THERMAL-Pad25)*%
X138515000Y-68080000D03*
%TD*%
D16*
%TO.N,A7RX*%
X144835000Y-73400000D02*
X148400000Y-73400000D01*
X148400000Y-73400000D02*
X148740000Y-73740000D01*
X148740000Y-73740000D02*
X152000000Y-73740000D01*
%TO.N,A8*%
X144835000Y-70860000D02*
X151660000Y-70860000D01*
D17*
X151660000Y-70860000D02*
X152000000Y-71200000D01*
D16*
%TO.N,A9*%
X144835000Y-68320000D02*
X147680000Y-68320000D01*
X147680000Y-68320000D02*
X148020000Y-68660000D01*
X148020000Y-68660000D02*
X152000000Y-68660000D01*
%TO.N,A10*%
X144835000Y-65780000D02*
X151660000Y-65780000D01*
D17*
X151660000Y-65780000D02*
X152000000Y-66120000D01*
D16*
%TO.N,PWR_3V3*%
X144835000Y-63240000D02*
X151660000Y-63240000D01*
D17*
X151660000Y-63240000D02*
X152000000Y-63580000D01*
%TO.N,GND*%
X144835000Y-60700000D02*
X145800000Y-60700000D01*
D16*
X146140000Y-61040000D02*
X152000000Y-61040000D01*
D17*
X145800000Y-60700000D02*
X146140000Y-61040000D01*
D16*
%TO.N,PWR_5V*%
X144835000Y-58160000D02*
X148840000Y-58160000D01*
X148840000Y-58160000D02*
X149180000Y-58500000D01*
X149180000Y-58500000D02*
X152000000Y-58500000D01*
%TO.N,A6TX*%
X129600000Y-73400000D02*
X122680000Y-73400000D01*
X122680000Y-73400000D02*
X122500000Y-73580000D01*
%TO.N,SCL*%
X129600000Y-70860000D02*
X122680000Y-70860000D01*
X122680000Y-70860000D02*
X122500000Y-71040000D01*
%TO.N,SDA*%
X129600000Y-68320000D02*
X126180000Y-68320000D01*
X126180000Y-68320000D02*
X126000000Y-68500000D01*
X126000000Y-68500000D02*
X122500000Y-68500000D01*
%TO.N,A3*%
X129600000Y-65780000D02*
X122680000Y-65780000D01*
X122680000Y-65780000D02*
X122500000Y-65960000D01*
%TO.N,A2*%
X129600000Y-63240000D02*
X122680000Y-63240000D01*
X122680000Y-63240000D02*
X122500000Y-63420000D01*
%TO.N,A1*%
X129600000Y-60700000D02*
X128700000Y-60700000D01*
X128700000Y-60700000D02*
X128520000Y-60880000D01*
X128520000Y-60880000D02*
X122500000Y-60880000D01*
%TO.N,A0*%
X122680000Y-58160000D02*
X122500000Y-58340000D01*
D17*
%TO.N,GND*%
X144975000Y-60840000D02*
X144835000Y-60700000D01*
%TO.N,A10*%
X144975000Y-65920000D02*
X144835000Y-65780000D01*
%TO.N,A8*%
X144975000Y-71000000D02*
X144835000Y-70860000D01*
%TO.N,PWR_3V3*%
X144975000Y-63380000D02*
X144835000Y-63240000D01*
%TO.N,PWR_5V*%
X144975000Y-58300000D02*
X144835000Y-58160000D01*
%TO.N,A9*%
X144975000Y-68460000D02*
X144835000Y-68320000D01*
D16*
%TO.N,A0*%
X129600000Y-58160000D02*
X122680000Y-58160000D01*
%TD*%
M02*
