%TF.GenerationSoftware,KiCad,Pcbnew,8.0.6*%
%TF.CreationDate,2024-10-28T18:17:31-04:00*%
%TF.ProjectId,polulu_motor,706f6c75-6c75-45f6-9d6f-746f722e6b69,rev?*%
%TF.SameCoordinates,Original*%
%TF.FileFunction,Drillmap*%
%TF.FilePolarity,Positive*%
%FSLAX45Y45*%
G04 Gerber Fmt 4.5, Leading zero omitted, Abs format (unit mm)*
G04 Created by KiCad (PCBNEW 8.0.6) date 2024-10-28 18:17:31*
%MOMM*%
%LPD*%
G01*
G04 APERTURE LIST*
%ADD10C,0.050000*%
%ADD11C,0.200000*%
%ADD12C,0.100000*%
%ADD13C,0.140000*%
G04 APERTURE END LIST*
D10*
X11550000Y-4550000D02*
X15050000Y-4550000D01*
X15050000Y-9200000D01*
X11550000Y-9200000D01*
X11550000Y-4550000D01*
D11*
D12*
X12841500Y-7275000D02*
X12921500Y-7355000D01*
X12921500Y-7275000D02*
X12841500Y-7355000D01*
X12841500Y-7529000D02*
X12921500Y-7609000D01*
X12921500Y-7529000D02*
X12841500Y-7609000D01*
X12841500Y-7783000D02*
X12921500Y-7863000D01*
X12921500Y-7783000D02*
X12841500Y-7863000D01*
X12841500Y-8037000D02*
X12921500Y-8117000D01*
X12921500Y-8037000D02*
X12841500Y-8117000D01*
X12841500Y-8291000D02*
X12921500Y-8371000D01*
X12921500Y-8291000D02*
X12841500Y-8371000D01*
X12841500Y-8545000D02*
X12921500Y-8625000D01*
X12921500Y-8545000D02*
X12841500Y-8625000D01*
X12841500Y-8799000D02*
X12921500Y-8879000D01*
X12921500Y-8799000D02*
X12841500Y-8879000D01*
X12940000Y-4748000D02*
X13020000Y-4828000D01*
X13020000Y-4748000D02*
X12940000Y-4828000D01*
X12940000Y-5002000D02*
X13020000Y-5082000D01*
X13020000Y-5002000D02*
X12940000Y-5082000D01*
X12940000Y-5256000D02*
X13020000Y-5336000D01*
X13020000Y-5256000D02*
X12940000Y-5336000D01*
X12940000Y-5510000D02*
X13020000Y-5590000D01*
X13020000Y-5510000D02*
X12940000Y-5590000D01*
X12940000Y-5764000D02*
X13020000Y-5844000D01*
X13020000Y-5764000D02*
X12940000Y-5844000D01*
X12940000Y-6018000D02*
X13020000Y-6098000D01*
X13020000Y-6018000D02*
X12940000Y-6098000D01*
X12940000Y-6272000D02*
X13020000Y-6352000D01*
X13020000Y-6272000D02*
X12940000Y-6352000D01*
X12940000Y-6526000D02*
X13020000Y-6606000D01*
X13020000Y-6526000D02*
X12940000Y-6606000D01*
X14210000Y-4748000D02*
X14290000Y-4828000D01*
X14290000Y-4748000D02*
X14210000Y-4828000D01*
X14210000Y-5002000D02*
X14290000Y-5082000D01*
X14290000Y-5002000D02*
X14210000Y-5082000D01*
X14210000Y-5256000D02*
X14290000Y-5336000D01*
X14290000Y-5256000D02*
X14210000Y-5336000D01*
X14210000Y-5510000D02*
X14290000Y-5590000D01*
X14290000Y-5510000D02*
X14210000Y-5590000D01*
X14210000Y-5764000D02*
X14290000Y-5844000D01*
X14290000Y-5764000D02*
X14210000Y-5844000D01*
X14210000Y-6018000D02*
X14290000Y-6098000D01*
X14290000Y-6018000D02*
X14210000Y-6098000D01*
X14210000Y-6272000D02*
X14290000Y-6352000D01*
X14290000Y-6272000D02*
X14210000Y-6352000D01*
X14210000Y-6526000D02*
X14290000Y-6606000D01*
X14290000Y-6526000D02*
X14210000Y-6606000D01*
X14365000Y-7275000D02*
X14445000Y-7355000D01*
X14445000Y-7275000D02*
X14365000Y-7355000D01*
X14365000Y-7529000D02*
X14445000Y-7609000D01*
X14445000Y-7529000D02*
X14365000Y-7609000D01*
X14365000Y-7783000D02*
X14445000Y-7863000D01*
X14445000Y-7783000D02*
X14365000Y-7863000D01*
X14365000Y-8037000D02*
X14445000Y-8117000D01*
X14445000Y-8037000D02*
X14365000Y-8117000D01*
X14365000Y-8291000D02*
X14445000Y-8371000D01*
X14445000Y-8291000D02*
X14365000Y-8371000D01*
X14365000Y-8545000D02*
X14445000Y-8625000D01*
X14445000Y-8545000D02*
X14365000Y-8625000D01*
X14365000Y-8799000D02*
X14445000Y-8879000D01*
X14445000Y-8799000D02*
X14365000Y-8879000D01*
X13790500Y-5050000D02*
G75*
G02*
X13709500Y-5050000I-40500J0D01*
G01*
X13709500Y-5050000D02*
G75*
G02*
X13790500Y-5050000I40500J0D01*
G01*
D13*
X11900000Y-6480000D02*
X11900000Y-6620000D01*
X11830000Y-6550000D02*
X11970000Y-6550000D01*
X11900000Y-6830000D02*
X11900000Y-6970000D01*
X11830000Y-6900000D02*
X11970000Y-6900000D01*
X12228000Y-4780000D02*
X12228000Y-4920000D01*
X12158000Y-4850000D02*
X12298000Y-4850000D01*
X12228000Y-5130000D02*
X12228000Y-5270000D01*
X12158000Y-5200000D02*
X12298000Y-5200000D01*
X12350000Y-5630000D02*
X12350000Y-5770000D01*
X12280000Y-5700000D02*
X12420000Y-5700000D01*
X12350000Y-5980000D02*
X12350000Y-6120000D01*
X12280000Y-6050000D02*
X12420000Y-6050000D01*
D11*
X11808277Y-9513984D02*
X11808277Y-9313984D01*
X11808277Y-9313984D02*
X11855896Y-9313984D01*
X11855896Y-9313984D02*
X11884467Y-9323508D01*
X11884467Y-9323508D02*
X11903515Y-9342555D01*
X11903515Y-9342555D02*
X11913039Y-9361603D01*
X11913039Y-9361603D02*
X11922562Y-9399698D01*
X11922562Y-9399698D02*
X11922562Y-9428270D01*
X11922562Y-9428270D02*
X11913039Y-9466365D01*
X11913039Y-9466365D02*
X11903515Y-9485412D01*
X11903515Y-9485412D02*
X11884467Y-9504460D01*
X11884467Y-9504460D02*
X11855896Y-9513984D01*
X11855896Y-9513984D02*
X11808277Y-9513984D01*
X12008277Y-9513984D02*
X12008277Y-9380650D01*
X12008277Y-9418746D02*
X12017801Y-9399698D01*
X12017801Y-9399698D02*
X12027324Y-9390174D01*
X12027324Y-9390174D02*
X12046372Y-9380650D01*
X12046372Y-9380650D02*
X12065420Y-9380650D01*
X12132086Y-9513984D02*
X12132086Y-9380650D01*
X12132086Y-9313984D02*
X12122562Y-9323508D01*
X12122562Y-9323508D02*
X12132086Y-9333031D01*
X12132086Y-9333031D02*
X12141610Y-9323508D01*
X12141610Y-9323508D02*
X12132086Y-9313984D01*
X12132086Y-9313984D02*
X12132086Y-9333031D01*
X12255896Y-9513984D02*
X12236848Y-9504460D01*
X12236848Y-9504460D02*
X12227324Y-9485412D01*
X12227324Y-9485412D02*
X12227324Y-9313984D01*
X12360658Y-9513984D02*
X12341610Y-9504460D01*
X12341610Y-9504460D02*
X12332086Y-9485412D01*
X12332086Y-9485412D02*
X12332086Y-9313984D01*
X12589229Y-9513984D02*
X12589229Y-9313984D01*
X12589229Y-9313984D02*
X12655896Y-9456841D01*
X12655896Y-9456841D02*
X12722562Y-9313984D01*
X12722562Y-9313984D02*
X12722562Y-9513984D01*
X12903515Y-9513984D02*
X12903515Y-9409222D01*
X12903515Y-9409222D02*
X12893991Y-9390174D01*
X12893991Y-9390174D02*
X12874943Y-9380650D01*
X12874943Y-9380650D02*
X12836848Y-9380650D01*
X12836848Y-9380650D02*
X12817801Y-9390174D01*
X12903515Y-9504460D02*
X12884467Y-9513984D01*
X12884467Y-9513984D02*
X12836848Y-9513984D01*
X12836848Y-9513984D02*
X12817801Y-9504460D01*
X12817801Y-9504460D02*
X12808277Y-9485412D01*
X12808277Y-9485412D02*
X12808277Y-9466365D01*
X12808277Y-9466365D02*
X12817801Y-9447317D01*
X12817801Y-9447317D02*
X12836848Y-9437793D01*
X12836848Y-9437793D02*
X12884467Y-9437793D01*
X12884467Y-9437793D02*
X12903515Y-9428270D01*
X12998753Y-9380650D02*
X12998753Y-9580650D01*
X12998753Y-9390174D02*
X13017801Y-9380650D01*
X13017801Y-9380650D02*
X13055896Y-9380650D01*
X13055896Y-9380650D02*
X13074943Y-9390174D01*
X13074943Y-9390174D02*
X13084467Y-9399698D01*
X13084467Y-9399698D02*
X13093991Y-9418746D01*
X13093991Y-9418746D02*
X13093991Y-9475889D01*
X13093991Y-9475889D02*
X13084467Y-9494936D01*
X13084467Y-9494936D02*
X13074943Y-9504460D01*
X13074943Y-9504460D02*
X13055896Y-9513984D01*
X13055896Y-9513984D02*
X13017801Y-9513984D01*
X13017801Y-9513984D02*
X12998753Y-9504460D01*
X13179705Y-9494936D02*
X13189229Y-9504460D01*
X13189229Y-9504460D02*
X13179705Y-9513984D01*
X13179705Y-9513984D02*
X13170182Y-9504460D01*
X13170182Y-9504460D02*
X13179705Y-9494936D01*
X13179705Y-9494936D02*
X13179705Y-9513984D01*
X13179705Y-9390174D02*
X13189229Y-9399698D01*
X13189229Y-9399698D02*
X13179705Y-9409222D01*
X13179705Y-9409222D02*
X13170182Y-9399698D01*
X13170182Y-9399698D02*
X13179705Y-9390174D01*
X13179705Y-9390174D02*
X13179705Y-9409222D01*
D12*
X11467500Y-9802500D02*
X11547500Y-9882500D01*
X11547500Y-9802500D02*
X11467500Y-9882500D01*
D11*
X11846372Y-9733984D02*
X11865420Y-9733984D01*
X11865420Y-9733984D02*
X11884467Y-9743508D01*
X11884467Y-9743508D02*
X11893991Y-9753031D01*
X11893991Y-9753031D02*
X11903515Y-9772079D01*
X11903515Y-9772079D02*
X11913039Y-9810174D01*
X11913039Y-9810174D02*
X11913039Y-9857793D01*
X11913039Y-9857793D02*
X11903515Y-9895889D01*
X11903515Y-9895889D02*
X11893991Y-9914936D01*
X11893991Y-9914936D02*
X11884467Y-9924460D01*
X11884467Y-9924460D02*
X11865420Y-9933984D01*
X11865420Y-9933984D02*
X11846372Y-9933984D01*
X11846372Y-9933984D02*
X11827324Y-9924460D01*
X11827324Y-9924460D02*
X11817801Y-9914936D01*
X11817801Y-9914936D02*
X11808277Y-9895889D01*
X11808277Y-9895889D02*
X11798753Y-9857793D01*
X11798753Y-9857793D02*
X11798753Y-9810174D01*
X11798753Y-9810174D02*
X11808277Y-9772079D01*
X11808277Y-9772079D02*
X11817801Y-9753031D01*
X11817801Y-9753031D02*
X11827324Y-9743508D01*
X11827324Y-9743508D02*
X11846372Y-9733984D01*
X11998753Y-9914936D02*
X12008277Y-9924460D01*
X12008277Y-9924460D02*
X11998753Y-9933984D01*
X11998753Y-9933984D02*
X11989229Y-9924460D01*
X11989229Y-9924460D02*
X11998753Y-9914936D01*
X11998753Y-9914936D02*
X11998753Y-9933984D01*
X12122562Y-9819698D02*
X12103515Y-9810174D01*
X12103515Y-9810174D02*
X12093991Y-9800650D01*
X12093991Y-9800650D02*
X12084467Y-9781603D01*
X12084467Y-9781603D02*
X12084467Y-9772079D01*
X12084467Y-9772079D02*
X12093991Y-9753031D01*
X12093991Y-9753031D02*
X12103515Y-9743508D01*
X12103515Y-9743508D02*
X12122562Y-9733984D01*
X12122562Y-9733984D02*
X12160658Y-9733984D01*
X12160658Y-9733984D02*
X12179705Y-9743508D01*
X12179705Y-9743508D02*
X12189229Y-9753031D01*
X12189229Y-9753031D02*
X12198753Y-9772079D01*
X12198753Y-9772079D02*
X12198753Y-9781603D01*
X12198753Y-9781603D02*
X12189229Y-9800650D01*
X12189229Y-9800650D02*
X12179705Y-9810174D01*
X12179705Y-9810174D02*
X12160658Y-9819698D01*
X12160658Y-9819698D02*
X12122562Y-9819698D01*
X12122562Y-9819698D02*
X12103515Y-9829222D01*
X12103515Y-9829222D02*
X12093991Y-9838746D01*
X12093991Y-9838746D02*
X12084467Y-9857793D01*
X12084467Y-9857793D02*
X12084467Y-9895889D01*
X12084467Y-9895889D02*
X12093991Y-9914936D01*
X12093991Y-9914936D02*
X12103515Y-9924460D01*
X12103515Y-9924460D02*
X12122562Y-9933984D01*
X12122562Y-9933984D02*
X12160658Y-9933984D01*
X12160658Y-9933984D02*
X12179705Y-9924460D01*
X12179705Y-9924460D02*
X12189229Y-9914936D01*
X12189229Y-9914936D02*
X12198753Y-9895889D01*
X12198753Y-9895889D02*
X12198753Y-9857793D01*
X12198753Y-9857793D02*
X12189229Y-9838746D01*
X12189229Y-9838746D02*
X12179705Y-9829222D01*
X12179705Y-9829222D02*
X12160658Y-9819698D01*
X12322562Y-9733984D02*
X12341610Y-9733984D01*
X12341610Y-9733984D02*
X12360658Y-9743508D01*
X12360658Y-9743508D02*
X12370182Y-9753031D01*
X12370182Y-9753031D02*
X12379705Y-9772079D01*
X12379705Y-9772079D02*
X12389229Y-9810174D01*
X12389229Y-9810174D02*
X12389229Y-9857793D01*
X12389229Y-9857793D02*
X12379705Y-9895889D01*
X12379705Y-9895889D02*
X12370182Y-9914936D01*
X12370182Y-9914936D02*
X12360658Y-9924460D01*
X12360658Y-9924460D02*
X12341610Y-9933984D01*
X12341610Y-9933984D02*
X12322562Y-9933984D01*
X12322562Y-9933984D02*
X12303515Y-9924460D01*
X12303515Y-9924460D02*
X12293991Y-9914936D01*
X12293991Y-9914936D02*
X12284467Y-9895889D01*
X12284467Y-9895889D02*
X12274943Y-9857793D01*
X12274943Y-9857793D02*
X12274943Y-9810174D01*
X12274943Y-9810174D02*
X12284467Y-9772079D01*
X12284467Y-9772079D02*
X12293991Y-9753031D01*
X12293991Y-9753031D02*
X12303515Y-9743508D01*
X12303515Y-9743508D02*
X12322562Y-9733984D01*
X12513039Y-9733984D02*
X12532086Y-9733984D01*
X12532086Y-9733984D02*
X12551134Y-9743508D01*
X12551134Y-9743508D02*
X12560658Y-9753031D01*
X12560658Y-9753031D02*
X12570182Y-9772079D01*
X12570182Y-9772079D02*
X12579705Y-9810174D01*
X12579705Y-9810174D02*
X12579705Y-9857793D01*
X12579705Y-9857793D02*
X12570182Y-9895889D01*
X12570182Y-9895889D02*
X12560658Y-9914936D01*
X12560658Y-9914936D02*
X12551134Y-9924460D01*
X12551134Y-9924460D02*
X12532086Y-9933984D01*
X12532086Y-9933984D02*
X12513039Y-9933984D01*
X12513039Y-9933984D02*
X12493991Y-9924460D01*
X12493991Y-9924460D02*
X12484467Y-9914936D01*
X12484467Y-9914936D02*
X12474943Y-9895889D01*
X12474943Y-9895889D02*
X12465420Y-9857793D01*
X12465420Y-9857793D02*
X12465420Y-9810174D01*
X12465420Y-9810174D02*
X12474943Y-9772079D01*
X12474943Y-9772079D02*
X12484467Y-9753031D01*
X12484467Y-9753031D02*
X12493991Y-9743508D01*
X12493991Y-9743508D02*
X12513039Y-9733984D01*
X12665420Y-9933984D02*
X12665420Y-9800650D01*
X12665420Y-9819698D02*
X12674943Y-9810174D01*
X12674943Y-9810174D02*
X12693991Y-9800650D01*
X12693991Y-9800650D02*
X12722563Y-9800650D01*
X12722563Y-9800650D02*
X12741610Y-9810174D01*
X12741610Y-9810174D02*
X12751134Y-9829222D01*
X12751134Y-9829222D02*
X12751134Y-9933984D01*
X12751134Y-9829222D02*
X12760658Y-9810174D01*
X12760658Y-9810174D02*
X12779705Y-9800650D01*
X12779705Y-9800650D02*
X12808277Y-9800650D01*
X12808277Y-9800650D02*
X12827324Y-9810174D01*
X12827324Y-9810174D02*
X12836848Y-9829222D01*
X12836848Y-9829222D02*
X12836848Y-9933984D01*
X12932086Y-9933984D02*
X12932086Y-9800650D01*
X12932086Y-9819698D02*
X12941610Y-9810174D01*
X12941610Y-9810174D02*
X12960658Y-9800650D01*
X12960658Y-9800650D02*
X12989229Y-9800650D01*
X12989229Y-9800650D02*
X13008277Y-9810174D01*
X13008277Y-9810174D02*
X13017801Y-9829222D01*
X13017801Y-9829222D02*
X13017801Y-9933984D01*
X13017801Y-9829222D02*
X13027324Y-9810174D01*
X13027324Y-9810174D02*
X13046372Y-9800650D01*
X13046372Y-9800650D02*
X13074943Y-9800650D01*
X13074943Y-9800650D02*
X13093991Y-9810174D01*
X13093991Y-9810174D02*
X13103515Y-9829222D01*
X13103515Y-9829222D02*
X13103515Y-9933984D01*
X13493991Y-9724460D02*
X13322563Y-9981603D01*
X13751134Y-9733984D02*
X13770182Y-9733984D01*
X13770182Y-9733984D02*
X13789229Y-9743508D01*
X13789229Y-9743508D02*
X13798753Y-9753031D01*
X13798753Y-9753031D02*
X13808277Y-9772079D01*
X13808277Y-9772079D02*
X13817801Y-9810174D01*
X13817801Y-9810174D02*
X13817801Y-9857793D01*
X13817801Y-9857793D02*
X13808277Y-9895889D01*
X13808277Y-9895889D02*
X13798753Y-9914936D01*
X13798753Y-9914936D02*
X13789229Y-9924460D01*
X13789229Y-9924460D02*
X13770182Y-9933984D01*
X13770182Y-9933984D02*
X13751134Y-9933984D01*
X13751134Y-9933984D02*
X13732086Y-9924460D01*
X13732086Y-9924460D02*
X13722563Y-9914936D01*
X13722563Y-9914936D02*
X13713039Y-9895889D01*
X13713039Y-9895889D02*
X13703515Y-9857793D01*
X13703515Y-9857793D02*
X13703515Y-9810174D01*
X13703515Y-9810174D02*
X13713039Y-9772079D01*
X13713039Y-9772079D02*
X13722563Y-9753031D01*
X13722563Y-9753031D02*
X13732086Y-9743508D01*
X13732086Y-9743508D02*
X13751134Y-9733984D01*
X13903515Y-9914936D02*
X13913039Y-9924460D01*
X13913039Y-9924460D02*
X13903515Y-9933984D01*
X13903515Y-9933984D02*
X13893991Y-9924460D01*
X13893991Y-9924460D02*
X13903515Y-9914936D01*
X13903515Y-9914936D02*
X13903515Y-9933984D01*
X14036848Y-9733984D02*
X14055896Y-9733984D01*
X14055896Y-9733984D02*
X14074944Y-9743508D01*
X14074944Y-9743508D02*
X14084467Y-9753031D01*
X14084467Y-9753031D02*
X14093991Y-9772079D01*
X14093991Y-9772079D02*
X14103515Y-9810174D01*
X14103515Y-9810174D02*
X14103515Y-9857793D01*
X14103515Y-9857793D02*
X14093991Y-9895889D01*
X14093991Y-9895889D02*
X14084467Y-9914936D01*
X14084467Y-9914936D02*
X14074944Y-9924460D01*
X14074944Y-9924460D02*
X14055896Y-9933984D01*
X14055896Y-9933984D02*
X14036848Y-9933984D01*
X14036848Y-9933984D02*
X14017801Y-9924460D01*
X14017801Y-9924460D02*
X14008277Y-9914936D01*
X14008277Y-9914936D02*
X13998753Y-9895889D01*
X13998753Y-9895889D02*
X13989229Y-9857793D01*
X13989229Y-9857793D02*
X13989229Y-9810174D01*
X13989229Y-9810174D02*
X13998753Y-9772079D01*
X13998753Y-9772079D02*
X14008277Y-9753031D01*
X14008277Y-9753031D02*
X14017801Y-9743508D01*
X14017801Y-9743508D02*
X14036848Y-9733984D01*
X14170182Y-9733984D02*
X14293991Y-9733984D01*
X14293991Y-9733984D02*
X14227325Y-9810174D01*
X14227325Y-9810174D02*
X14255896Y-9810174D01*
X14255896Y-9810174D02*
X14274944Y-9819698D01*
X14274944Y-9819698D02*
X14284467Y-9829222D01*
X14284467Y-9829222D02*
X14293991Y-9848270D01*
X14293991Y-9848270D02*
X14293991Y-9895889D01*
X14293991Y-9895889D02*
X14284467Y-9914936D01*
X14284467Y-9914936D02*
X14274944Y-9924460D01*
X14274944Y-9924460D02*
X14255896Y-9933984D01*
X14255896Y-9933984D02*
X14198753Y-9933984D01*
X14198753Y-9933984D02*
X14179706Y-9924460D01*
X14179706Y-9924460D02*
X14170182Y-9914936D01*
X14484467Y-9933984D02*
X14370182Y-9933984D01*
X14427325Y-9933984D02*
X14427325Y-9733984D01*
X14427325Y-9733984D02*
X14408277Y-9762555D01*
X14408277Y-9762555D02*
X14389229Y-9781603D01*
X14389229Y-9781603D02*
X14370182Y-9791127D01*
X14665420Y-9733984D02*
X14570182Y-9733984D01*
X14570182Y-9733984D02*
X14560658Y-9829222D01*
X14560658Y-9829222D02*
X14570182Y-9819698D01*
X14570182Y-9819698D02*
X14589229Y-9810174D01*
X14589229Y-9810174D02*
X14636848Y-9810174D01*
X14636848Y-9810174D02*
X14655896Y-9819698D01*
X14655896Y-9819698D02*
X14665420Y-9829222D01*
X14665420Y-9829222D02*
X14674944Y-9848270D01*
X14674944Y-9848270D02*
X14674944Y-9895889D01*
X14674944Y-9895889D02*
X14665420Y-9914936D01*
X14665420Y-9914936D02*
X14655896Y-9924460D01*
X14655896Y-9924460D02*
X14636848Y-9933984D01*
X14636848Y-9933984D02*
X14589229Y-9933984D01*
X14589229Y-9933984D02*
X14570182Y-9924460D01*
X14570182Y-9924460D02*
X14560658Y-9914936D01*
X14751134Y-9733984D02*
X14751134Y-9772079D01*
X14827325Y-9733984D02*
X14827325Y-9772079D01*
X15122563Y-10010174D02*
X15113039Y-10000650D01*
X15113039Y-10000650D02*
X15093991Y-9972079D01*
X15093991Y-9972079D02*
X15084468Y-9953031D01*
X15084468Y-9953031D02*
X15074944Y-9924460D01*
X15074944Y-9924460D02*
X15065420Y-9876841D01*
X15065420Y-9876841D02*
X15065420Y-9838746D01*
X15065420Y-9838746D02*
X15074944Y-9791127D01*
X15074944Y-9791127D02*
X15084468Y-9762555D01*
X15084468Y-9762555D02*
X15093991Y-9743508D01*
X15093991Y-9743508D02*
X15113039Y-9714936D01*
X15113039Y-9714936D02*
X15122563Y-9705412D01*
X15179706Y-9733984D02*
X15303515Y-9733984D01*
X15303515Y-9733984D02*
X15236848Y-9810174D01*
X15236848Y-9810174D02*
X15265420Y-9810174D01*
X15265420Y-9810174D02*
X15284468Y-9819698D01*
X15284468Y-9819698D02*
X15293991Y-9829222D01*
X15293991Y-9829222D02*
X15303515Y-9848270D01*
X15303515Y-9848270D02*
X15303515Y-9895889D01*
X15303515Y-9895889D02*
X15293991Y-9914936D01*
X15293991Y-9914936D02*
X15284468Y-9924460D01*
X15284468Y-9924460D02*
X15265420Y-9933984D01*
X15265420Y-9933984D02*
X15208277Y-9933984D01*
X15208277Y-9933984D02*
X15189229Y-9924460D01*
X15189229Y-9924460D02*
X15179706Y-9914936D01*
X15427325Y-9733984D02*
X15446372Y-9733984D01*
X15446372Y-9733984D02*
X15465420Y-9743508D01*
X15465420Y-9743508D02*
X15474944Y-9753031D01*
X15474944Y-9753031D02*
X15484468Y-9772079D01*
X15484468Y-9772079D02*
X15493991Y-9810174D01*
X15493991Y-9810174D02*
X15493991Y-9857793D01*
X15493991Y-9857793D02*
X15484468Y-9895889D01*
X15484468Y-9895889D02*
X15474944Y-9914936D01*
X15474944Y-9914936D02*
X15465420Y-9924460D01*
X15465420Y-9924460D02*
X15446372Y-9933984D01*
X15446372Y-9933984D02*
X15427325Y-9933984D01*
X15427325Y-9933984D02*
X15408277Y-9924460D01*
X15408277Y-9924460D02*
X15398753Y-9914936D01*
X15398753Y-9914936D02*
X15389229Y-9895889D01*
X15389229Y-9895889D02*
X15379706Y-9857793D01*
X15379706Y-9857793D02*
X15379706Y-9810174D01*
X15379706Y-9810174D02*
X15389229Y-9772079D01*
X15389229Y-9772079D02*
X15398753Y-9753031D01*
X15398753Y-9753031D02*
X15408277Y-9743508D01*
X15408277Y-9743508D02*
X15427325Y-9733984D01*
X15732087Y-9933984D02*
X15732087Y-9733984D01*
X15817801Y-9933984D02*
X15817801Y-9829222D01*
X15817801Y-9829222D02*
X15808277Y-9810174D01*
X15808277Y-9810174D02*
X15789230Y-9800650D01*
X15789230Y-9800650D02*
X15760658Y-9800650D01*
X15760658Y-9800650D02*
X15741610Y-9810174D01*
X15741610Y-9810174D02*
X15732087Y-9819698D01*
X15941610Y-9933984D02*
X15922563Y-9924460D01*
X15922563Y-9924460D02*
X15913039Y-9914936D01*
X15913039Y-9914936D02*
X15903515Y-9895889D01*
X15903515Y-9895889D02*
X15903515Y-9838746D01*
X15903515Y-9838746D02*
X15913039Y-9819698D01*
X15913039Y-9819698D02*
X15922563Y-9810174D01*
X15922563Y-9810174D02*
X15941610Y-9800650D01*
X15941610Y-9800650D02*
X15970182Y-9800650D01*
X15970182Y-9800650D02*
X15989230Y-9810174D01*
X15989230Y-9810174D02*
X15998753Y-9819698D01*
X15998753Y-9819698D02*
X16008277Y-9838746D01*
X16008277Y-9838746D02*
X16008277Y-9895889D01*
X16008277Y-9895889D02*
X15998753Y-9914936D01*
X15998753Y-9914936D02*
X15989230Y-9924460D01*
X15989230Y-9924460D02*
X15970182Y-9933984D01*
X15970182Y-9933984D02*
X15941610Y-9933984D01*
X16122563Y-9933984D02*
X16103515Y-9924460D01*
X16103515Y-9924460D02*
X16093991Y-9905412D01*
X16093991Y-9905412D02*
X16093991Y-9733984D01*
X16274944Y-9924460D02*
X16255896Y-9933984D01*
X16255896Y-9933984D02*
X16217801Y-9933984D01*
X16217801Y-9933984D02*
X16198753Y-9924460D01*
X16198753Y-9924460D02*
X16189230Y-9905412D01*
X16189230Y-9905412D02*
X16189230Y-9829222D01*
X16189230Y-9829222D02*
X16198753Y-9810174D01*
X16198753Y-9810174D02*
X16217801Y-9800650D01*
X16217801Y-9800650D02*
X16255896Y-9800650D01*
X16255896Y-9800650D02*
X16274944Y-9810174D01*
X16274944Y-9810174D02*
X16284468Y-9829222D01*
X16284468Y-9829222D02*
X16284468Y-9848270D01*
X16284468Y-9848270D02*
X16189230Y-9867317D01*
X16360658Y-9924460D02*
X16379706Y-9933984D01*
X16379706Y-9933984D02*
X16417801Y-9933984D01*
X16417801Y-9933984D02*
X16436849Y-9924460D01*
X16436849Y-9924460D02*
X16446372Y-9905412D01*
X16446372Y-9905412D02*
X16446372Y-9895889D01*
X16446372Y-9895889D02*
X16436849Y-9876841D01*
X16436849Y-9876841D02*
X16417801Y-9867317D01*
X16417801Y-9867317D02*
X16389230Y-9867317D01*
X16389230Y-9867317D02*
X16370182Y-9857793D01*
X16370182Y-9857793D02*
X16360658Y-9838746D01*
X16360658Y-9838746D02*
X16360658Y-9829222D01*
X16360658Y-9829222D02*
X16370182Y-9810174D01*
X16370182Y-9810174D02*
X16389230Y-9800650D01*
X16389230Y-9800650D02*
X16417801Y-9800650D01*
X16417801Y-9800650D02*
X16436849Y-9810174D01*
X16513039Y-10010174D02*
X16522563Y-10000650D01*
X16522563Y-10000650D02*
X16541611Y-9972079D01*
X16541611Y-9972079D02*
X16551134Y-9953031D01*
X16551134Y-9953031D02*
X16560658Y-9924460D01*
X16560658Y-9924460D02*
X16570182Y-9876841D01*
X16570182Y-9876841D02*
X16570182Y-9838746D01*
X16570182Y-9838746D02*
X16560658Y-9791127D01*
X16560658Y-9791127D02*
X16551134Y-9762555D01*
X16551134Y-9762555D02*
X16541611Y-9743508D01*
X16541611Y-9743508D02*
X16522563Y-9714936D01*
X16522563Y-9714936D02*
X16513039Y-9705412D01*
D12*
X11547500Y-10106500D02*
G75*
G02*
X11466500Y-10106500I-40500J0D01*
G01*
X11466500Y-10106500D02*
G75*
G02*
X11547500Y-10106500I40500J0D01*
G01*
D11*
X11846372Y-9997984D02*
X11865420Y-9997984D01*
X11865420Y-9997984D02*
X11884467Y-10007508D01*
X11884467Y-10007508D02*
X11893991Y-10017031D01*
X11893991Y-10017031D02*
X11903515Y-10036079D01*
X11903515Y-10036079D02*
X11913039Y-10074174D01*
X11913039Y-10074174D02*
X11913039Y-10121793D01*
X11913039Y-10121793D02*
X11903515Y-10159889D01*
X11903515Y-10159889D02*
X11893991Y-10178936D01*
X11893991Y-10178936D02*
X11884467Y-10188460D01*
X11884467Y-10188460D02*
X11865420Y-10197984D01*
X11865420Y-10197984D02*
X11846372Y-10197984D01*
X11846372Y-10197984D02*
X11827324Y-10188460D01*
X11827324Y-10188460D02*
X11817801Y-10178936D01*
X11817801Y-10178936D02*
X11808277Y-10159889D01*
X11808277Y-10159889D02*
X11798753Y-10121793D01*
X11798753Y-10121793D02*
X11798753Y-10074174D01*
X11798753Y-10074174D02*
X11808277Y-10036079D01*
X11808277Y-10036079D02*
X11817801Y-10017031D01*
X11817801Y-10017031D02*
X11827324Y-10007508D01*
X11827324Y-10007508D02*
X11846372Y-9997984D01*
X11998753Y-10178936D02*
X12008277Y-10188460D01*
X12008277Y-10188460D02*
X11998753Y-10197984D01*
X11998753Y-10197984D02*
X11989229Y-10188460D01*
X11989229Y-10188460D02*
X11998753Y-10178936D01*
X11998753Y-10178936D02*
X11998753Y-10197984D01*
X12122562Y-10083698D02*
X12103515Y-10074174D01*
X12103515Y-10074174D02*
X12093991Y-10064650D01*
X12093991Y-10064650D02*
X12084467Y-10045603D01*
X12084467Y-10045603D02*
X12084467Y-10036079D01*
X12084467Y-10036079D02*
X12093991Y-10017031D01*
X12093991Y-10017031D02*
X12103515Y-10007508D01*
X12103515Y-10007508D02*
X12122562Y-9997984D01*
X12122562Y-9997984D02*
X12160658Y-9997984D01*
X12160658Y-9997984D02*
X12179705Y-10007508D01*
X12179705Y-10007508D02*
X12189229Y-10017031D01*
X12189229Y-10017031D02*
X12198753Y-10036079D01*
X12198753Y-10036079D02*
X12198753Y-10045603D01*
X12198753Y-10045603D02*
X12189229Y-10064650D01*
X12189229Y-10064650D02*
X12179705Y-10074174D01*
X12179705Y-10074174D02*
X12160658Y-10083698D01*
X12160658Y-10083698D02*
X12122562Y-10083698D01*
X12122562Y-10083698D02*
X12103515Y-10093222D01*
X12103515Y-10093222D02*
X12093991Y-10102746D01*
X12093991Y-10102746D02*
X12084467Y-10121793D01*
X12084467Y-10121793D02*
X12084467Y-10159889D01*
X12084467Y-10159889D02*
X12093991Y-10178936D01*
X12093991Y-10178936D02*
X12103515Y-10188460D01*
X12103515Y-10188460D02*
X12122562Y-10197984D01*
X12122562Y-10197984D02*
X12160658Y-10197984D01*
X12160658Y-10197984D02*
X12179705Y-10188460D01*
X12179705Y-10188460D02*
X12189229Y-10178936D01*
X12189229Y-10178936D02*
X12198753Y-10159889D01*
X12198753Y-10159889D02*
X12198753Y-10121793D01*
X12198753Y-10121793D02*
X12189229Y-10102746D01*
X12189229Y-10102746D02*
X12179705Y-10093222D01*
X12179705Y-10093222D02*
X12160658Y-10083698D01*
X12389229Y-10197984D02*
X12274943Y-10197984D01*
X12332086Y-10197984D02*
X12332086Y-9997984D01*
X12332086Y-9997984D02*
X12313039Y-10026555D01*
X12313039Y-10026555D02*
X12293991Y-10045603D01*
X12293991Y-10045603D02*
X12274943Y-10055127D01*
X12513039Y-9997984D02*
X12532086Y-9997984D01*
X12532086Y-9997984D02*
X12551134Y-10007508D01*
X12551134Y-10007508D02*
X12560658Y-10017031D01*
X12560658Y-10017031D02*
X12570182Y-10036079D01*
X12570182Y-10036079D02*
X12579705Y-10074174D01*
X12579705Y-10074174D02*
X12579705Y-10121793D01*
X12579705Y-10121793D02*
X12570182Y-10159889D01*
X12570182Y-10159889D02*
X12560658Y-10178936D01*
X12560658Y-10178936D02*
X12551134Y-10188460D01*
X12551134Y-10188460D02*
X12532086Y-10197984D01*
X12532086Y-10197984D02*
X12513039Y-10197984D01*
X12513039Y-10197984D02*
X12493991Y-10188460D01*
X12493991Y-10188460D02*
X12484467Y-10178936D01*
X12484467Y-10178936D02*
X12474943Y-10159889D01*
X12474943Y-10159889D02*
X12465420Y-10121793D01*
X12465420Y-10121793D02*
X12465420Y-10074174D01*
X12465420Y-10074174D02*
X12474943Y-10036079D01*
X12474943Y-10036079D02*
X12484467Y-10017031D01*
X12484467Y-10017031D02*
X12493991Y-10007508D01*
X12493991Y-10007508D02*
X12513039Y-9997984D01*
X12665420Y-10197984D02*
X12665420Y-10064650D01*
X12665420Y-10083698D02*
X12674943Y-10074174D01*
X12674943Y-10074174D02*
X12693991Y-10064650D01*
X12693991Y-10064650D02*
X12722563Y-10064650D01*
X12722563Y-10064650D02*
X12741610Y-10074174D01*
X12741610Y-10074174D02*
X12751134Y-10093222D01*
X12751134Y-10093222D02*
X12751134Y-10197984D01*
X12751134Y-10093222D02*
X12760658Y-10074174D01*
X12760658Y-10074174D02*
X12779705Y-10064650D01*
X12779705Y-10064650D02*
X12808277Y-10064650D01*
X12808277Y-10064650D02*
X12827324Y-10074174D01*
X12827324Y-10074174D02*
X12836848Y-10093222D01*
X12836848Y-10093222D02*
X12836848Y-10197984D01*
X12932086Y-10197984D02*
X12932086Y-10064650D01*
X12932086Y-10083698D02*
X12941610Y-10074174D01*
X12941610Y-10074174D02*
X12960658Y-10064650D01*
X12960658Y-10064650D02*
X12989229Y-10064650D01*
X12989229Y-10064650D02*
X13008277Y-10074174D01*
X13008277Y-10074174D02*
X13017801Y-10093222D01*
X13017801Y-10093222D02*
X13017801Y-10197984D01*
X13017801Y-10093222D02*
X13027324Y-10074174D01*
X13027324Y-10074174D02*
X13046372Y-10064650D01*
X13046372Y-10064650D02*
X13074943Y-10064650D01*
X13074943Y-10064650D02*
X13093991Y-10074174D01*
X13093991Y-10074174D02*
X13103515Y-10093222D01*
X13103515Y-10093222D02*
X13103515Y-10197984D01*
X13493991Y-9988460D02*
X13322563Y-10245603D01*
X13751134Y-9997984D02*
X13770182Y-9997984D01*
X13770182Y-9997984D02*
X13789229Y-10007508D01*
X13789229Y-10007508D02*
X13798753Y-10017031D01*
X13798753Y-10017031D02*
X13808277Y-10036079D01*
X13808277Y-10036079D02*
X13817801Y-10074174D01*
X13817801Y-10074174D02*
X13817801Y-10121793D01*
X13817801Y-10121793D02*
X13808277Y-10159889D01*
X13808277Y-10159889D02*
X13798753Y-10178936D01*
X13798753Y-10178936D02*
X13789229Y-10188460D01*
X13789229Y-10188460D02*
X13770182Y-10197984D01*
X13770182Y-10197984D02*
X13751134Y-10197984D01*
X13751134Y-10197984D02*
X13732086Y-10188460D01*
X13732086Y-10188460D02*
X13722563Y-10178936D01*
X13722563Y-10178936D02*
X13713039Y-10159889D01*
X13713039Y-10159889D02*
X13703515Y-10121793D01*
X13703515Y-10121793D02*
X13703515Y-10074174D01*
X13703515Y-10074174D02*
X13713039Y-10036079D01*
X13713039Y-10036079D02*
X13722563Y-10017031D01*
X13722563Y-10017031D02*
X13732086Y-10007508D01*
X13732086Y-10007508D02*
X13751134Y-9997984D01*
X13903515Y-10178936D02*
X13913039Y-10188460D01*
X13913039Y-10188460D02*
X13903515Y-10197984D01*
X13903515Y-10197984D02*
X13893991Y-10188460D01*
X13893991Y-10188460D02*
X13903515Y-10178936D01*
X13903515Y-10178936D02*
X13903515Y-10197984D01*
X14036848Y-9997984D02*
X14055896Y-9997984D01*
X14055896Y-9997984D02*
X14074944Y-10007508D01*
X14074944Y-10007508D02*
X14084467Y-10017031D01*
X14084467Y-10017031D02*
X14093991Y-10036079D01*
X14093991Y-10036079D02*
X14103515Y-10074174D01*
X14103515Y-10074174D02*
X14103515Y-10121793D01*
X14103515Y-10121793D02*
X14093991Y-10159889D01*
X14093991Y-10159889D02*
X14084467Y-10178936D01*
X14084467Y-10178936D02*
X14074944Y-10188460D01*
X14074944Y-10188460D02*
X14055896Y-10197984D01*
X14055896Y-10197984D02*
X14036848Y-10197984D01*
X14036848Y-10197984D02*
X14017801Y-10188460D01*
X14017801Y-10188460D02*
X14008277Y-10178936D01*
X14008277Y-10178936D02*
X13998753Y-10159889D01*
X13998753Y-10159889D02*
X13989229Y-10121793D01*
X13989229Y-10121793D02*
X13989229Y-10074174D01*
X13989229Y-10074174D02*
X13998753Y-10036079D01*
X13998753Y-10036079D02*
X14008277Y-10017031D01*
X14008277Y-10017031D02*
X14017801Y-10007508D01*
X14017801Y-10007508D02*
X14036848Y-9997984D01*
X14170182Y-9997984D02*
X14293991Y-9997984D01*
X14293991Y-9997984D02*
X14227325Y-10074174D01*
X14227325Y-10074174D02*
X14255896Y-10074174D01*
X14255896Y-10074174D02*
X14274944Y-10083698D01*
X14274944Y-10083698D02*
X14284467Y-10093222D01*
X14284467Y-10093222D02*
X14293991Y-10112270D01*
X14293991Y-10112270D02*
X14293991Y-10159889D01*
X14293991Y-10159889D02*
X14284467Y-10178936D01*
X14284467Y-10178936D02*
X14274944Y-10188460D01*
X14274944Y-10188460D02*
X14255896Y-10197984D01*
X14255896Y-10197984D02*
X14198753Y-10197984D01*
X14198753Y-10197984D02*
X14179706Y-10188460D01*
X14179706Y-10188460D02*
X14170182Y-10178936D01*
X14484467Y-10197984D02*
X14370182Y-10197984D01*
X14427325Y-10197984D02*
X14427325Y-9997984D01*
X14427325Y-9997984D02*
X14408277Y-10026555D01*
X14408277Y-10026555D02*
X14389229Y-10045603D01*
X14389229Y-10045603D02*
X14370182Y-10055127D01*
X14579706Y-10197984D02*
X14617801Y-10197984D01*
X14617801Y-10197984D02*
X14636848Y-10188460D01*
X14636848Y-10188460D02*
X14646372Y-10178936D01*
X14646372Y-10178936D02*
X14665420Y-10150365D01*
X14665420Y-10150365D02*
X14674944Y-10112270D01*
X14674944Y-10112270D02*
X14674944Y-10036079D01*
X14674944Y-10036079D02*
X14665420Y-10017031D01*
X14665420Y-10017031D02*
X14655896Y-10007508D01*
X14655896Y-10007508D02*
X14636848Y-9997984D01*
X14636848Y-9997984D02*
X14598753Y-9997984D01*
X14598753Y-9997984D02*
X14579706Y-10007508D01*
X14579706Y-10007508D02*
X14570182Y-10017031D01*
X14570182Y-10017031D02*
X14560658Y-10036079D01*
X14560658Y-10036079D02*
X14560658Y-10083698D01*
X14560658Y-10083698D02*
X14570182Y-10102746D01*
X14570182Y-10102746D02*
X14579706Y-10112270D01*
X14579706Y-10112270D02*
X14598753Y-10121793D01*
X14598753Y-10121793D02*
X14636848Y-10121793D01*
X14636848Y-10121793D02*
X14655896Y-10112270D01*
X14655896Y-10112270D02*
X14665420Y-10102746D01*
X14665420Y-10102746D02*
X14674944Y-10083698D01*
X14751134Y-9997984D02*
X14751134Y-10036079D01*
X14827325Y-9997984D02*
X14827325Y-10036079D01*
X15122563Y-10274174D02*
X15113039Y-10264650D01*
X15113039Y-10264650D02*
X15093991Y-10236079D01*
X15093991Y-10236079D02*
X15084468Y-10217031D01*
X15084468Y-10217031D02*
X15074944Y-10188460D01*
X15074944Y-10188460D02*
X15065420Y-10140841D01*
X15065420Y-10140841D02*
X15065420Y-10102746D01*
X15065420Y-10102746D02*
X15074944Y-10055127D01*
X15074944Y-10055127D02*
X15084468Y-10026555D01*
X15084468Y-10026555D02*
X15093991Y-10007508D01*
X15093991Y-10007508D02*
X15113039Y-9978936D01*
X15113039Y-9978936D02*
X15122563Y-9969412D01*
X15303515Y-10197984D02*
X15189229Y-10197984D01*
X15246372Y-10197984D02*
X15246372Y-9997984D01*
X15246372Y-9997984D02*
X15227325Y-10026555D01*
X15227325Y-10026555D02*
X15208277Y-10045603D01*
X15208277Y-10045603D02*
X15189229Y-10055127D01*
X15541610Y-10197984D02*
X15541610Y-9997984D01*
X15627325Y-10197984D02*
X15627325Y-10093222D01*
X15627325Y-10093222D02*
X15617801Y-10074174D01*
X15617801Y-10074174D02*
X15598753Y-10064650D01*
X15598753Y-10064650D02*
X15570182Y-10064650D01*
X15570182Y-10064650D02*
X15551134Y-10074174D01*
X15551134Y-10074174D02*
X15541610Y-10083698D01*
X15751134Y-10197984D02*
X15732087Y-10188460D01*
X15732087Y-10188460D02*
X15722563Y-10178936D01*
X15722563Y-10178936D02*
X15713039Y-10159889D01*
X15713039Y-10159889D02*
X15713039Y-10102746D01*
X15713039Y-10102746D02*
X15722563Y-10083698D01*
X15722563Y-10083698D02*
X15732087Y-10074174D01*
X15732087Y-10074174D02*
X15751134Y-10064650D01*
X15751134Y-10064650D02*
X15779706Y-10064650D01*
X15779706Y-10064650D02*
X15798753Y-10074174D01*
X15798753Y-10074174D02*
X15808277Y-10083698D01*
X15808277Y-10083698D02*
X15817801Y-10102746D01*
X15817801Y-10102746D02*
X15817801Y-10159889D01*
X15817801Y-10159889D02*
X15808277Y-10178936D01*
X15808277Y-10178936D02*
X15798753Y-10188460D01*
X15798753Y-10188460D02*
X15779706Y-10197984D01*
X15779706Y-10197984D02*
X15751134Y-10197984D01*
X15932087Y-10197984D02*
X15913039Y-10188460D01*
X15913039Y-10188460D02*
X15903515Y-10169412D01*
X15903515Y-10169412D02*
X15903515Y-9997984D01*
X16084468Y-10188460D02*
X16065420Y-10197984D01*
X16065420Y-10197984D02*
X16027325Y-10197984D01*
X16027325Y-10197984D02*
X16008277Y-10188460D01*
X16008277Y-10188460D02*
X15998753Y-10169412D01*
X15998753Y-10169412D02*
X15998753Y-10093222D01*
X15998753Y-10093222D02*
X16008277Y-10074174D01*
X16008277Y-10074174D02*
X16027325Y-10064650D01*
X16027325Y-10064650D02*
X16065420Y-10064650D01*
X16065420Y-10064650D02*
X16084468Y-10074174D01*
X16084468Y-10074174D02*
X16093991Y-10093222D01*
X16093991Y-10093222D02*
X16093991Y-10112270D01*
X16093991Y-10112270D02*
X15998753Y-10131317D01*
X16160658Y-10274174D02*
X16170182Y-10264650D01*
X16170182Y-10264650D02*
X16189230Y-10236079D01*
X16189230Y-10236079D02*
X16198753Y-10217031D01*
X16198753Y-10217031D02*
X16208277Y-10188460D01*
X16208277Y-10188460D02*
X16217801Y-10140841D01*
X16217801Y-10140841D02*
X16217801Y-10102746D01*
X16217801Y-10102746D02*
X16208277Y-10055127D01*
X16208277Y-10055127D02*
X16198753Y-10026555D01*
X16198753Y-10026555D02*
X16189230Y-10007508D01*
X16189230Y-10007508D02*
X16170182Y-9978936D01*
X16170182Y-9978936D02*
X16160658Y-9969412D01*
D13*
X11477500Y-10300500D02*
X11477500Y-10440500D01*
X11407500Y-10370500D02*
X11547500Y-10370500D01*
D11*
X11913039Y-10461984D02*
X11798753Y-10461984D01*
X11855896Y-10461984D02*
X11855896Y-10261984D01*
X11855896Y-10261984D02*
X11836848Y-10290555D01*
X11836848Y-10290555D02*
X11817801Y-10309603D01*
X11817801Y-10309603D02*
X11798753Y-10319127D01*
X11998753Y-10442936D02*
X12008277Y-10452460D01*
X12008277Y-10452460D02*
X11998753Y-10461984D01*
X11998753Y-10461984D02*
X11989229Y-10452460D01*
X11989229Y-10452460D02*
X11998753Y-10442936D01*
X11998753Y-10442936D02*
X11998753Y-10461984D01*
X12179705Y-10328650D02*
X12179705Y-10461984D01*
X12132086Y-10252460D02*
X12084467Y-10395317D01*
X12084467Y-10395317D02*
X12208277Y-10395317D01*
X12322562Y-10261984D02*
X12341610Y-10261984D01*
X12341610Y-10261984D02*
X12360658Y-10271508D01*
X12360658Y-10271508D02*
X12370182Y-10281031D01*
X12370182Y-10281031D02*
X12379705Y-10300079D01*
X12379705Y-10300079D02*
X12389229Y-10338174D01*
X12389229Y-10338174D02*
X12389229Y-10385793D01*
X12389229Y-10385793D02*
X12379705Y-10423889D01*
X12379705Y-10423889D02*
X12370182Y-10442936D01*
X12370182Y-10442936D02*
X12360658Y-10452460D01*
X12360658Y-10452460D02*
X12341610Y-10461984D01*
X12341610Y-10461984D02*
X12322562Y-10461984D01*
X12322562Y-10461984D02*
X12303515Y-10452460D01*
X12303515Y-10452460D02*
X12293991Y-10442936D01*
X12293991Y-10442936D02*
X12284467Y-10423889D01*
X12284467Y-10423889D02*
X12274943Y-10385793D01*
X12274943Y-10385793D02*
X12274943Y-10338174D01*
X12274943Y-10338174D02*
X12284467Y-10300079D01*
X12284467Y-10300079D02*
X12293991Y-10281031D01*
X12293991Y-10281031D02*
X12303515Y-10271508D01*
X12303515Y-10271508D02*
X12322562Y-10261984D01*
X12513039Y-10261984D02*
X12532086Y-10261984D01*
X12532086Y-10261984D02*
X12551134Y-10271508D01*
X12551134Y-10271508D02*
X12560658Y-10281031D01*
X12560658Y-10281031D02*
X12570182Y-10300079D01*
X12570182Y-10300079D02*
X12579705Y-10338174D01*
X12579705Y-10338174D02*
X12579705Y-10385793D01*
X12579705Y-10385793D02*
X12570182Y-10423889D01*
X12570182Y-10423889D02*
X12560658Y-10442936D01*
X12560658Y-10442936D02*
X12551134Y-10452460D01*
X12551134Y-10452460D02*
X12532086Y-10461984D01*
X12532086Y-10461984D02*
X12513039Y-10461984D01*
X12513039Y-10461984D02*
X12493991Y-10452460D01*
X12493991Y-10452460D02*
X12484467Y-10442936D01*
X12484467Y-10442936D02*
X12474943Y-10423889D01*
X12474943Y-10423889D02*
X12465420Y-10385793D01*
X12465420Y-10385793D02*
X12465420Y-10338174D01*
X12465420Y-10338174D02*
X12474943Y-10300079D01*
X12474943Y-10300079D02*
X12484467Y-10281031D01*
X12484467Y-10281031D02*
X12493991Y-10271508D01*
X12493991Y-10271508D02*
X12513039Y-10261984D01*
X12665420Y-10461984D02*
X12665420Y-10328650D01*
X12665420Y-10347698D02*
X12674943Y-10338174D01*
X12674943Y-10338174D02*
X12693991Y-10328650D01*
X12693991Y-10328650D02*
X12722563Y-10328650D01*
X12722563Y-10328650D02*
X12741610Y-10338174D01*
X12741610Y-10338174D02*
X12751134Y-10357222D01*
X12751134Y-10357222D02*
X12751134Y-10461984D01*
X12751134Y-10357222D02*
X12760658Y-10338174D01*
X12760658Y-10338174D02*
X12779705Y-10328650D01*
X12779705Y-10328650D02*
X12808277Y-10328650D01*
X12808277Y-10328650D02*
X12827324Y-10338174D01*
X12827324Y-10338174D02*
X12836848Y-10357222D01*
X12836848Y-10357222D02*
X12836848Y-10461984D01*
X12932086Y-10461984D02*
X12932086Y-10328650D01*
X12932086Y-10347698D02*
X12941610Y-10338174D01*
X12941610Y-10338174D02*
X12960658Y-10328650D01*
X12960658Y-10328650D02*
X12989229Y-10328650D01*
X12989229Y-10328650D02*
X13008277Y-10338174D01*
X13008277Y-10338174D02*
X13017801Y-10357222D01*
X13017801Y-10357222D02*
X13017801Y-10461984D01*
X13017801Y-10357222D02*
X13027324Y-10338174D01*
X13027324Y-10338174D02*
X13046372Y-10328650D01*
X13046372Y-10328650D02*
X13074943Y-10328650D01*
X13074943Y-10328650D02*
X13093991Y-10338174D01*
X13093991Y-10338174D02*
X13103515Y-10357222D01*
X13103515Y-10357222D02*
X13103515Y-10461984D01*
X13493991Y-10252460D02*
X13322563Y-10509603D01*
X13751134Y-10261984D02*
X13770182Y-10261984D01*
X13770182Y-10261984D02*
X13789229Y-10271508D01*
X13789229Y-10271508D02*
X13798753Y-10281031D01*
X13798753Y-10281031D02*
X13808277Y-10300079D01*
X13808277Y-10300079D02*
X13817801Y-10338174D01*
X13817801Y-10338174D02*
X13817801Y-10385793D01*
X13817801Y-10385793D02*
X13808277Y-10423889D01*
X13808277Y-10423889D02*
X13798753Y-10442936D01*
X13798753Y-10442936D02*
X13789229Y-10452460D01*
X13789229Y-10452460D02*
X13770182Y-10461984D01*
X13770182Y-10461984D02*
X13751134Y-10461984D01*
X13751134Y-10461984D02*
X13732086Y-10452460D01*
X13732086Y-10452460D02*
X13722563Y-10442936D01*
X13722563Y-10442936D02*
X13713039Y-10423889D01*
X13713039Y-10423889D02*
X13703515Y-10385793D01*
X13703515Y-10385793D02*
X13703515Y-10338174D01*
X13703515Y-10338174D02*
X13713039Y-10300079D01*
X13713039Y-10300079D02*
X13722563Y-10281031D01*
X13722563Y-10281031D02*
X13732086Y-10271508D01*
X13732086Y-10271508D02*
X13751134Y-10261984D01*
X13903515Y-10442936D02*
X13913039Y-10452460D01*
X13913039Y-10452460D02*
X13903515Y-10461984D01*
X13903515Y-10461984D02*
X13893991Y-10452460D01*
X13893991Y-10452460D02*
X13903515Y-10442936D01*
X13903515Y-10442936D02*
X13903515Y-10461984D01*
X14036848Y-10261984D02*
X14055896Y-10261984D01*
X14055896Y-10261984D02*
X14074944Y-10271508D01*
X14074944Y-10271508D02*
X14084467Y-10281031D01*
X14084467Y-10281031D02*
X14093991Y-10300079D01*
X14093991Y-10300079D02*
X14103515Y-10338174D01*
X14103515Y-10338174D02*
X14103515Y-10385793D01*
X14103515Y-10385793D02*
X14093991Y-10423889D01*
X14093991Y-10423889D02*
X14084467Y-10442936D01*
X14084467Y-10442936D02*
X14074944Y-10452460D01*
X14074944Y-10452460D02*
X14055896Y-10461984D01*
X14055896Y-10461984D02*
X14036848Y-10461984D01*
X14036848Y-10461984D02*
X14017801Y-10452460D01*
X14017801Y-10452460D02*
X14008277Y-10442936D01*
X14008277Y-10442936D02*
X13998753Y-10423889D01*
X13998753Y-10423889D02*
X13989229Y-10385793D01*
X13989229Y-10385793D02*
X13989229Y-10338174D01*
X13989229Y-10338174D02*
X13998753Y-10300079D01*
X13998753Y-10300079D02*
X14008277Y-10281031D01*
X14008277Y-10281031D02*
X14017801Y-10271508D01*
X14017801Y-10271508D02*
X14036848Y-10261984D01*
X14284467Y-10261984D02*
X14189229Y-10261984D01*
X14189229Y-10261984D02*
X14179706Y-10357222D01*
X14179706Y-10357222D02*
X14189229Y-10347698D01*
X14189229Y-10347698D02*
X14208277Y-10338174D01*
X14208277Y-10338174D02*
X14255896Y-10338174D01*
X14255896Y-10338174D02*
X14274944Y-10347698D01*
X14274944Y-10347698D02*
X14284467Y-10357222D01*
X14284467Y-10357222D02*
X14293991Y-10376270D01*
X14293991Y-10376270D02*
X14293991Y-10423889D01*
X14293991Y-10423889D02*
X14284467Y-10442936D01*
X14284467Y-10442936D02*
X14274944Y-10452460D01*
X14274944Y-10452460D02*
X14255896Y-10461984D01*
X14255896Y-10461984D02*
X14208277Y-10461984D01*
X14208277Y-10461984D02*
X14189229Y-10452460D01*
X14189229Y-10452460D02*
X14179706Y-10442936D01*
X14474944Y-10261984D02*
X14379706Y-10261984D01*
X14379706Y-10261984D02*
X14370182Y-10357222D01*
X14370182Y-10357222D02*
X14379706Y-10347698D01*
X14379706Y-10347698D02*
X14398753Y-10338174D01*
X14398753Y-10338174D02*
X14446372Y-10338174D01*
X14446372Y-10338174D02*
X14465420Y-10347698D01*
X14465420Y-10347698D02*
X14474944Y-10357222D01*
X14474944Y-10357222D02*
X14484467Y-10376270D01*
X14484467Y-10376270D02*
X14484467Y-10423889D01*
X14484467Y-10423889D02*
X14474944Y-10442936D01*
X14474944Y-10442936D02*
X14465420Y-10452460D01*
X14465420Y-10452460D02*
X14446372Y-10461984D01*
X14446372Y-10461984D02*
X14398753Y-10461984D01*
X14398753Y-10461984D02*
X14379706Y-10452460D01*
X14379706Y-10452460D02*
X14370182Y-10442936D01*
X14674944Y-10461984D02*
X14560658Y-10461984D01*
X14617801Y-10461984D02*
X14617801Y-10261984D01*
X14617801Y-10261984D02*
X14598753Y-10290555D01*
X14598753Y-10290555D02*
X14579706Y-10309603D01*
X14579706Y-10309603D02*
X14560658Y-10319127D01*
X14751134Y-10261984D02*
X14751134Y-10300079D01*
X14827325Y-10261984D02*
X14827325Y-10300079D01*
X15122563Y-10538174D02*
X15113039Y-10528650D01*
X15113039Y-10528650D02*
X15093991Y-10500079D01*
X15093991Y-10500079D02*
X15084468Y-10481031D01*
X15084468Y-10481031D02*
X15074944Y-10452460D01*
X15074944Y-10452460D02*
X15065420Y-10404841D01*
X15065420Y-10404841D02*
X15065420Y-10366746D01*
X15065420Y-10366746D02*
X15074944Y-10319127D01*
X15074944Y-10319127D02*
X15084468Y-10290555D01*
X15084468Y-10290555D02*
X15093991Y-10271508D01*
X15093991Y-10271508D02*
X15113039Y-10242936D01*
X15113039Y-10242936D02*
X15122563Y-10233412D01*
X15284468Y-10261984D02*
X15246372Y-10261984D01*
X15246372Y-10261984D02*
X15227325Y-10271508D01*
X15227325Y-10271508D02*
X15217801Y-10281031D01*
X15217801Y-10281031D02*
X15198753Y-10309603D01*
X15198753Y-10309603D02*
X15189229Y-10347698D01*
X15189229Y-10347698D02*
X15189229Y-10423889D01*
X15189229Y-10423889D02*
X15198753Y-10442936D01*
X15198753Y-10442936D02*
X15208277Y-10452460D01*
X15208277Y-10452460D02*
X15227325Y-10461984D01*
X15227325Y-10461984D02*
X15265420Y-10461984D01*
X15265420Y-10461984D02*
X15284468Y-10452460D01*
X15284468Y-10452460D02*
X15293991Y-10442936D01*
X15293991Y-10442936D02*
X15303515Y-10423889D01*
X15303515Y-10423889D02*
X15303515Y-10376270D01*
X15303515Y-10376270D02*
X15293991Y-10357222D01*
X15293991Y-10357222D02*
X15284468Y-10347698D01*
X15284468Y-10347698D02*
X15265420Y-10338174D01*
X15265420Y-10338174D02*
X15227325Y-10338174D01*
X15227325Y-10338174D02*
X15208277Y-10347698D01*
X15208277Y-10347698D02*
X15198753Y-10357222D01*
X15198753Y-10357222D02*
X15189229Y-10376270D01*
X15541610Y-10461984D02*
X15541610Y-10261984D01*
X15627325Y-10461984D02*
X15627325Y-10357222D01*
X15627325Y-10357222D02*
X15617801Y-10338174D01*
X15617801Y-10338174D02*
X15598753Y-10328650D01*
X15598753Y-10328650D02*
X15570182Y-10328650D01*
X15570182Y-10328650D02*
X15551134Y-10338174D01*
X15551134Y-10338174D02*
X15541610Y-10347698D01*
X15751134Y-10461984D02*
X15732087Y-10452460D01*
X15732087Y-10452460D02*
X15722563Y-10442936D01*
X15722563Y-10442936D02*
X15713039Y-10423889D01*
X15713039Y-10423889D02*
X15713039Y-10366746D01*
X15713039Y-10366746D02*
X15722563Y-10347698D01*
X15722563Y-10347698D02*
X15732087Y-10338174D01*
X15732087Y-10338174D02*
X15751134Y-10328650D01*
X15751134Y-10328650D02*
X15779706Y-10328650D01*
X15779706Y-10328650D02*
X15798753Y-10338174D01*
X15798753Y-10338174D02*
X15808277Y-10347698D01*
X15808277Y-10347698D02*
X15817801Y-10366746D01*
X15817801Y-10366746D02*
X15817801Y-10423889D01*
X15817801Y-10423889D02*
X15808277Y-10442936D01*
X15808277Y-10442936D02*
X15798753Y-10452460D01*
X15798753Y-10452460D02*
X15779706Y-10461984D01*
X15779706Y-10461984D02*
X15751134Y-10461984D01*
X15932087Y-10461984D02*
X15913039Y-10452460D01*
X15913039Y-10452460D02*
X15903515Y-10433412D01*
X15903515Y-10433412D02*
X15903515Y-10261984D01*
X16084468Y-10452460D02*
X16065420Y-10461984D01*
X16065420Y-10461984D02*
X16027325Y-10461984D01*
X16027325Y-10461984D02*
X16008277Y-10452460D01*
X16008277Y-10452460D02*
X15998753Y-10433412D01*
X15998753Y-10433412D02*
X15998753Y-10357222D01*
X15998753Y-10357222D02*
X16008277Y-10338174D01*
X16008277Y-10338174D02*
X16027325Y-10328650D01*
X16027325Y-10328650D02*
X16065420Y-10328650D01*
X16065420Y-10328650D02*
X16084468Y-10338174D01*
X16084468Y-10338174D02*
X16093991Y-10357222D01*
X16093991Y-10357222D02*
X16093991Y-10376270D01*
X16093991Y-10376270D02*
X15998753Y-10395317D01*
X16170182Y-10452460D02*
X16189230Y-10461984D01*
X16189230Y-10461984D02*
X16227325Y-10461984D01*
X16227325Y-10461984D02*
X16246372Y-10452460D01*
X16246372Y-10452460D02*
X16255896Y-10433412D01*
X16255896Y-10433412D02*
X16255896Y-10423889D01*
X16255896Y-10423889D02*
X16246372Y-10404841D01*
X16246372Y-10404841D02*
X16227325Y-10395317D01*
X16227325Y-10395317D02*
X16198753Y-10395317D01*
X16198753Y-10395317D02*
X16179706Y-10385793D01*
X16179706Y-10385793D02*
X16170182Y-10366746D01*
X16170182Y-10366746D02*
X16170182Y-10357222D01*
X16170182Y-10357222D02*
X16179706Y-10338174D01*
X16179706Y-10338174D02*
X16198753Y-10328650D01*
X16198753Y-10328650D02*
X16227325Y-10328650D01*
X16227325Y-10328650D02*
X16246372Y-10338174D01*
X16322563Y-10538174D02*
X16332087Y-10528650D01*
X16332087Y-10528650D02*
X16351134Y-10500079D01*
X16351134Y-10500079D02*
X16360658Y-10481031D01*
X16360658Y-10481031D02*
X16370182Y-10452460D01*
X16370182Y-10452460D02*
X16379706Y-10404841D01*
X16379706Y-10404841D02*
X16379706Y-10366746D01*
X16379706Y-10366746D02*
X16370182Y-10319127D01*
X16370182Y-10319127D02*
X16360658Y-10290555D01*
X16360658Y-10290555D02*
X16351134Y-10271508D01*
X16351134Y-10271508D02*
X16332087Y-10242936D01*
X16332087Y-10242936D02*
X16322563Y-10233412D01*
M02*
