M48
; DRILL file {KiCad 8.0.6} date 2024-10-28T18:17:31-0400
; FORMAT={-:-/ absolute / metric / decimal}
; #@! TF.CreationDate,2024-10-28T18:17:31-04:00
; #@! TF.GenerationSoftware,Kicad,Pcbnew,8.0.6
; #@! TF.FileFunction,Plated,1,2,PTH
FMAT,2
METRIC
; #@! TA.AperFunction,Plated,PTH,ComponentDrill
T1C0.800
; #@! TA.AperFunction,Plated,PTH,ViaDrill
T2C0.810
; #@! TA.AperFunction,Plated,PTH,ComponentDrill
T3C1.400
%
G90
G05
T1
X128.815Y-73.15
X128.815Y-75.69
X128.815Y-78.23
X128.815Y-80.77
X128.815Y-83.31
X128.815Y-85.85
X128.815Y-88.39
X129.8Y-47.88
X129.8Y-50.42
X129.8Y-52.96
X129.8Y-55.5
X129.8Y-58.04
X129.8Y-60.58
X129.8Y-63.12
X129.8Y-65.66
X142.5Y-47.88
X142.5Y-50.42
X142.5Y-52.96
X142.5Y-55.5
X142.5Y-58.04
X142.5Y-60.58
X142.5Y-63.12
X142.5Y-65.66
X144.05Y-73.15
X144.05Y-75.69
X144.05Y-78.23
X144.05Y-80.77
X144.05Y-83.31
X144.05Y-85.85
X144.05Y-88.39
T2
X137.5Y-50.5
T3
X119.0Y-65.5
X119.0Y-69.0
X122.28Y-48.5
X122.28Y-52.0
X123.5Y-57.0
X123.5Y-60.5
M30
