%TF.GenerationSoftware,KiCad,Pcbnew,8.0.6*%
%TF.CreationDate,2024-11-01T18:25:13-04:00*%
%TF.ProjectId,led_circle,6c65645f-6369-4726-936c-652e6b696361,rev?*%
%TF.SameCoordinates,Original*%
%TF.FileFunction,Copper,L1,Top*%
%TF.FilePolarity,Positive*%
%FSLAX46Y46*%
G04 Gerber Fmt 4.6, Leading zero omitted, Abs format (unit mm)*
G04 Created by KiCad (PCBNEW 8.0.6) date 2024-11-01 18:25:13*
%MOMM*%
%LPD*%
G01*
G04 APERTURE LIST*
%TA.AperFunction,ComponentPad*%
%ADD10C,3.300000*%
%TD*%
%TA.AperFunction,SMDPad,CuDef*%
%ADD11R,1.000000X2.300000*%
%TD*%
%TA.AperFunction,SMDPad,CuDef*%
%ADD12R,1.400000X1.100000*%
%TD*%
%TA.AperFunction,SMDPad,CuDef*%
%ADD13R,1.700000X1.400000*%
%TD*%
%TA.AperFunction,ComponentPad*%
%ADD14O,1.700000X1.700000*%
%TD*%
%TA.AperFunction,SMDPad,CuDef*%
%ADD15R,2.300000X1.000000*%
%TD*%
%TA.AperFunction,SMDPad,CuDef*%
%ADD16R,1.100000X1.400000*%
%TD*%
%TA.AperFunction,ComponentPad*%
%ADD17O,3.400000X2.100000*%
%TD*%
%TA.AperFunction,SMDPad,CuDef*%
%ADD18R,1.400000X1.700000*%
%TD*%
%TA.AperFunction,Conductor*%
%ADD19C,0.400000*%
%TD*%
G04 APERTURE END LIST*
D10*
%TO.P,H1,*%
%TO.N,*%
X131500000Y-69000000D03*
%TD*%
D11*
%TO.P,D4,1,K*%
%TO.N,GND*%
X134050000Y-82550000D03*
D12*
%TO.P,D4,2,A*%
%TO.N,Net-(D4-A)*%
X134050000Y-84900000D03*
%TD*%
D13*
%TO.P,R2,1*%
%TO.N,Net-(D2-A)*%
X120000000Y-85500000D03*
%TO.P,R2,2*%
%TO.N,Net-(J3-Pin_3)*%
X120000000Y-82100000D03*
%TD*%
D14*
%TO.P,J1,1,Pin_1*%
%TO.N,GND*%
X138000000Y-75000000D03*
%TD*%
D11*
%TO.P,D2,1,K*%
%TO.N,GND*%
X124050000Y-82650000D03*
D12*
%TO.P,D2,2,A*%
%TO.N,Net-(D2-A)*%
X124050000Y-85000000D03*
%TD*%
D15*
%TO.P,D3,1,K*%
%TO.N,GND*%
X127600000Y-88500000D03*
D16*
%TO.P,D3,2,A*%
%TO.N,Net-(D3-A)*%
X129950000Y-88500000D03*
%TD*%
D17*
%TO.P,J3,1,Pin_1*%
%TO.N,Net-(J3-Pin_1)*%
X142000000Y-89000000D03*
%TO.P,J3,2,Pin_2*%
%TO.N,Net-(J3-Pin_2)*%
X142000000Y-86460000D03*
%TO.P,J3,3,Pin_3*%
%TO.N,Net-(J3-Pin_3)*%
X142000000Y-83920000D03*
%TO.P,J3,4,Pin_4*%
%TO.N,Net-(J3-Pin_4)*%
X142000000Y-81380000D03*
%TD*%
D18*
%TO.P,R3,1*%
%TO.N,Net-(D3-A)*%
X126800000Y-92500000D03*
%TO.P,R3,2*%
%TO.N,Net-(J3-Pin_2)*%
X130200000Y-92500000D03*
%TD*%
D10*
%TO.P,H2,*%
%TO.N,*%
X131500000Y-98000000D03*
%TD*%
D13*
%TO.P,R4,1*%
%TO.N,Net-(D4-A)*%
X138000000Y-81800000D03*
%TO.P,R4,2*%
%TO.N,Net-(J3-Pin_1)*%
X138000000Y-85200000D03*
%TD*%
D18*
%TO.P,R1,1*%
%TO.N,Net-(D1-A)*%
X130700000Y-75000000D03*
%TO.P,R1,2*%
%TO.N,Net-(J3-Pin_4)*%
X127300000Y-75000000D03*
%TD*%
D15*
%TO.P,D1,1,K*%
%TO.N,GND*%
X129500000Y-79000000D03*
D16*
%TO.P,D1,2,A*%
%TO.N,Net-(D1-A)*%
X127150000Y-79000000D03*
%TD*%
D19*
%TO.N,GND*%
X134050000Y-82550000D02*
X133550000Y-82550000D01*
X125850000Y-82650000D02*
X129500000Y-79000000D01*
X124050000Y-82650000D02*
X125850000Y-82650000D01*
X129500000Y-79000000D02*
X133050000Y-82550000D01*
X134500000Y-75000000D02*
X130500000Y-79000000D01*
X127600000Y-86200000D02*
X124050000Y-82650000D01*
X138000000Y-75000000D02*
X134500000Y-75000000D01*
X133550000Y-82550000D02*
X127600000Y-88500000D01*
X130500000Y-79000000D02*
X129500000Y-79000000D01*
X133050000Y-82550000D02*
X134050000Y-82550000D01*
X127600000Y-88500000D02*
X127600000Y-86200000D01*
%TO.N,Net-(D1-A)*%
X127150000Y-79000000D02*
X127150000Y-78550000D01*
X127150000Y-78550000D02*
X130700000Y-75000000D01*
%TO.N,Net-(D2-A)*%
X124050000Y-85000000D02*
X120500000Y-85000000D01*
X120500000Y-85000000D02*
X120000000Y-85500000D01*
%TO.N,Net-(D3-A)*%
X129950000Y-89350000D02*
X126800000Y-92500000D01*
X129950000Y-88500000D02*
X129950000Y-89350000D01*
%TO.N,Net-(D4-A)*%
X134050000Y-84900000D02*
X134900000Y-84900000D01*
X134900000Y-84900000D02*
X138000000Y-81800000D01*
%TO.N,Net-(J3-Pin_2)*%
X146500000Y-86500000D02*
X146500000Y-90500000D01*
X130200000Y-92500000D02*
X130700000Y-92500000D01*
X144500000Y-92500000D02*
X130200000Y-92500000D01*
X142000000Y-86460000D02*
X146460000Y-86460000D01*
X146460000Y-86460000D02*
X146500000Y-86500000D01*
X146500000Y-90500000D02*
X144500000Y-92500000D01*
%TO.N,Net-(J3-Pin_3)*%
X146500000Y-79000000D02*
X146500000Y-84000000D01*
X126500000Y-72000000D02*
X139500000Y-72000000D01*
X120400000Y-82500000D02*
X120000000Y-82100000D01*
X120000000Y-82100000D02*
X120000000Y-78500000D01*
X142080000Y-84000000D02*
X142000000Y-83920000D01*
X120000000Y-78500000D02*
X126500000Y-72000000D01*
X119900000Y-82000000D02*
X120000000Y-82100000D01*
X139500000Y-72000000D02*
X146500000Y-79000000D01*
X146500000Y-84000000D02*
X142080000Y-84000000D01*
%TO.N,Net-(J3-Pin_1)*%
X142000000Y-89000000D02*
X138000000Y-89000000D01*
X138000000Y-85200000D02*
X138200000Y-85200000D01*
X138000000Y-89000000D02*
X138000000Y-85200000D01*
%TO.N,Net-(J3-Pin_4)*%
X127300000Y-75000000D02*
X127100000Y-75000000D01*
X142000000Y-81380000D02*
X142000000Y-76500000D01*
X142000000Y-76500000D02*
X138500000Y-73000000D01*
X138500000Y-73000000D02*
X129300000Y-73000000D01*
X129300000Y-73000000D02*
X127300000Y-75000000D01*
%TD*%
M02*
