M48
; DRILL file {KiCad 8.0.6} date 2024-11-04T17:24:47-0500
; FORMAT={-:-/ absolute / metric / decimal}
; #@! TF.CreationDate,2024-11-04T17:24:47-05:00
; #@! TF.GenerationSoftware,Kicad,Pcbnew,8.0.6
; #@! TF.FileFunction,Plated,1,2,PTH
FMAT,2
METRIC
; #@! TA.AperFunction,Plated,PTH,ComponentDrill
T1C1.140
; #@! TA.AperFunction,Plated,PTH,ComponentDrill
T2C1.400
%
G90
G05
T1
X122.5Y-50.7
X122.5Y-53.24
X122.5Y-57.16
X122.5Y-59.7
X129.115Y-73.24
X129.115Y-75.78
X129.115Y-78.32
X129.115Y-80.86
X129.115Y-83.4
X129.115Y-85.94
X129.115Y-88.48
X131.5Y-47.5
X131.5Y-50.04
X131.5Y-52.58
X131.5Y-55.12
X131.5Y-57.66
X131.5Y-60.2
X131.5Y-62.74
X131.5Y-65.28
X144.2Y-47.5
X144.2Y-50.04
X144.2Y-52.58
X144.2Y-55.12
X144.2Y-57.66
X144.2Y-60.2
X144.2Y-62.74
X144.2Y-65.28
X144.35Y-73.24
X144.35Y-75.78
X144.35Y-78.32
X144.35Y-80.86
X144.35Y-83.4
X144.35Y-85.94
X144.35Y-88.48
T2
X119.0Y-64.5
X119.0Y-68.0
M30
