%TF.GenerationSoftware,KiCad,Pcbnew,8.0.6*%
%TF.CreationDate,2024-11-04T17:24:49-05:00*%
%TF.ProjectId,polulu_motor,706f6c75-6c75-45f6-9d6f-746f722e6b69,rev?*%
%TF.SameCoordinates,Original*%
%TF.FileFunction,Copper,L1,Top*%
%TF.FilePolarity,Positive*%
%FSLAX46Y46*%
G04 Gerber Fmt 4.6, Leading zero omitted, Abs format (unit mm)*
G04 Created by KiCad (PCBNEW 8.0.6) date 2024-11-04 17:24:49*
%MOMM*%
%LPD*%
G01*
G04 APERTURE LIST*
%TA.AperFunction,SMDPad,CuDef*%
%ADD10R,3.000000X1.600000*%
%TD*%
%TA.AperFunction,ComponentPad*%
%ADD11O,3.000000X1.600000*%
%TD*%
%TA.AperFunction,ComponentPad*%
%ADD12O,3.400000X2.100000*%
%TD*%
%TA.AperFunction,ComponentPad*%
%ADD13R,3.000000X3.000000*%
%TD*%
%TA.AperFunction,ComponentPad*%
%ADD14C,3.000000*%
%TD*%
%TA.AperFunction,ComponentPad*%
%ADD15O,3.000000X1.540000*%
%TD*%
%TA.AperFunction,Conductor*%
%ADD16C,0.800000*%
%TD*%
%TA.AperFunction,Conductor*%
%ADD17C,0.400000*%
%TD*%
%TA.AperFunction,Conductor*%
%ADD18C,0.700000*%
%TD*%
G04 APERTURE END LIST*
D10*
%TO.P,M1,1,D0*%
%TO.N,unconnected-(M1-D0-Pad1)*%
X128115000Y-88480000D03*
D11*
X129115000Y-88480000D03*
D10*
%TO.P,M1,2,D1*%
%TO.N,unconnected-(M1-D1-Pad2)*%
X128115000Y-85940000D03*
D11*
X129115000Y-85940000D03*
D10*
%TO.P,M1,3,D2*%
%TO.N,unconnected-(M1-D2-Pad3)*%
X128115000Y-83400000D03*
D11*
X129115000Y-83400000D03*
D10*
%TO.P,M1,4,D3*%
%TO.N,unconnected-(M1-D3-Pad4)*%
X128115000Y-80860000D03*
D11*
X129115000Y-80860000D03*
D10*
%TO.P,M1,5,D4*%
%TO.N,unconnected-(M1-D4-Pad5)*%
X128115000Y-78320000D03*
D11*
X129115000Y-78320000D03*
D10*
%TO.P,M1,6,D5*%
%TO.N,Net-(A1-M2)*%
X128115000Y-75780000D03*
D11*
X129115000Y-75780000D03*
D10*
%TO.P,M1,7,D6*%
%TO.N,Net-(A1-M1)*%
X128115000Y-73240000D03*
D11*
X129115000Y-73240000D03*
D10*
%TO.P,M1,8,D7*%
%TO.N,Net-(A1-M0)*%
X145350000Y-73240000D03*
D11*
X144350000Y-73240000D03*
D10*
%TO.P,M1,9,D8*%
%TO.N,Net-(A1-DIR)*%
X145350000Y-75780000D03*
D11*
X144350000Y-75780000D03*
D10*
%TO.P,M1,10,D9*%
%TO.N,Net-(A1-STEP)*%
X145350000Y-78320000D03*
D11*
X144350000Y-78320000D03*
D10*
%TO.P,M1,11,D10*%
%TO.N,Net-(A1-~{EN})*%
X145350000Y-80860000D03*
D11*
X144350000Y-80860000D03*
D10*
%TO.P,M1,12,3V3*%
%TO.N,unconnected-(M1-3V3-Pad12)*%
X145350000Y-83400000D03*
D11*
X144350000Y-83400000D03*
D10*
%TO.P,M1,13,GND*%
%TO.N,GND1*%
X145350000Y-85940000D03*
D11*
X144350000Y-85940000D03*
D10*
%TO.P,M1,14,5V*%
%TO.N,Net-(A1-~{RST})*%
X145350000Y-88480000D03*
D11*
X144350000Y-88480000D03*
%TD*%
D12*
%TO.P,J4,1,Pin_1*%
%TO.N,Net-(A1-B2)*%
X122500000Y-50700000D03*
%TO.P,J4,2,Pin_2*%
%TO.N,Net-(A1-B1)*%
X122500000Y-53240000D03*
%TD*%
D13*
%TO.P,J1,1,Pin_1*%
%TO.N,VMOT1*%
X119000000Y-68000000D03*
D14*
%TO.P,J1,2,Pin_2*%
%TO.N,GND1*%
X119000000Y-64500000D03*
%TD*%
D12*
%TO.P,J3,1,Pin_1*%
%TO.N,Net-(A1-A2)*%
X122500000Y-59700000D03*
%TO.P,J3,2,Pin_2*%
%TO.N,Net-(A1-A1)*%
X122500000Y-57160000D03*
%TD*%
D15*
%TO.P,A1,1,GND*%
%TO.N,unconnected-(A1-GND-Pad1)*%
X131500000Y-65280000D03*
%TO.P,A1,2,~{FLT}*%
%TO.N,unconnected-(A1-~{FLT}-Pad2)*%
X131500000Y-62740000D03*
%TO.P,A1,3,A2*%
%TO.N,Net-(A1-A2)*%
X131500000Y-60200000D03*
%TO.P,A1,4,A1*%
%TO.N,Net-(A1-A1)*%
X131500000Y-57660000D03*
%TO.P,A1,5,B1*%
%TO.N,Net-(A1-B1)*%
X131500000Y-55120000D03*
%TO.P,A1,6,B2*%
%TO.N,Net-(A1-B2)*%
X131500000Y-52580000D03*
%TO.P,A1,7,GND*%
%TO.N,GND1*%
X131500000Y-50040000D03*
%TO.P,A1,8,VMOT*%
%TO.N,VMOT1*%
X131500000Y-47500000D03*
%TO.P,A1,9,~{EN}*%
%TO.N,Net-(A1-~{EN})*%
X144200000Y-47500000D03*
%TO.P,A1,10,M0*%
%TO.N,Net-(A1-M0)*%
X144200000Y-50040000D03*
%TO.P,A1,11,M1*%
%TO.N,Net-(A1-M1)*%
X144200000Y-52580000D03*
%TO.P,A1,12,M2*%
%TO.N,Net-(A1-M2)*%
X144200000Y-55120000D03*
%TO.P,A1,13,~{RST}*%
%TO.N,Net-(A1-~{RST})*%
X144200000Y-57660000D03*
%TO.P,A1,14,~{SLP}*%
X144200000Y-60200000D03*
%TO.P,A1,15,STEP*%
%TO.N,Net-(A1-STEP)*%
X144200000Y-62740000D03*
%TO.P,A1,16,DIR*%
%TO.N,Net-(A1-DIR)*%
X144200000Y-65280000D03*
%TD*%
D16*
%TO.N,VMOT1*%
X131500000Y-47500000D02*
X131000000Y-47500000D01*
X115500000Y-64500000D02*
X119000000Y-68000000D01*
X131000000Y-47500000D02*
X129000000Y-45500000D01*
X129000000Y-45500000D02*
X115500000Y-45500000D01*
X115500000Y-45500000D02*
X115500000Y-64500000D01*
D17*
%TO.N,Net-(A1-~{EN})*%
X144200000Y-47500000D02*
X148000000Y-47500000D01*
X150000000Y-78500000D02*
X147640000Y-80860000D01*
X148000000Y-47500000D02*
X150000000Y-49500000D01*
X150000000Y-49500000D02*
X150000000Y-78500000D01*
X147640000Y-80860000D02*
X144350000Y-80860000D01*
%TO.N,Net-(A1-M2)*%
X129115000Y-75780000D02*
X130720000Y-75780000D01*
X136500000Y-70000000D02*
X136500000Y-55000000D01*
X130720000Y-75780000D02*
X136500000Y-70000000D01*
X136500000Y-55000000D02*
X144080000Y-55000000D01*
X144080000Y-55000000D02*
X144200000Y-55120000D01*
%TO.N,Net-(A1-M1)*%
X144200000Y-52580000D02*
X136420000Y-52580000D01*
X134500000Y-54500000D02*
X134500000Y-68960000D01*
X133395000Y-68960000D02*
X129115000Y-73240000D01*
X136420000Y-52580000D02*
X134500000Y-54500000D01*
X134500000Y-68960000D02*
X133395000Y-68960000D01*
%TO.N,Net-(A1-DIR)*%
X144350000Y-75780000D02*
X143780000Y-75780000D01*
X143780000Y-75780000D02*
X142000000Y-74000000D01*
%TO.N,Net-(A1-STEP)*%
X144350000Y-78320000D02*
X143820000Y-78320000D01*
X143820000Y-78320000D02*
X140000000Y-74500000D01*
%TO.N,Net-(A1-~{RST})*%
X138000000Y-64500000D02*
X138000000Y-82500000D01*
X138000000Y-82500000D02*
X143980000Y-88480000D01*
X143980000Y-88480000D02*
X144350000Y-88480000D01*
D18*
%TO.N,GND1*%
X144350000Y-85940000D02*
X146440000Y-85940000D01*
X146440000Y-85940000D02*
X148500000Y-88000000D01*
D17*
%TO.N,Net-(A1-~{RST})*%
X144200000Y-60200000D02*
X142300000Y-60200000D01*
X143200000Y-88700000D02*
X144735000Y-88700000D01*
X142300000Y-60200000D02*
X138000000Y-64500000D01*
%TO.N,Net-(A1-STEP)*%
X140000000Y-74500000D02*
X140000000Y-64500000D01*
X144735000Y-78540000D02*
X144040000Y-78540000D01*
X140000000Y-64500000D02*
X141760000Y-62740000D01*
X141760000Y-62740000D02*
X144200000Y-62740000D01*
%TO.N,Net-(A1-DIR)*%
X142000000Y-67480000D02*
X142000000Y-74000000D01*
X144200000Y-65280000D02*
X142000000Y-67480000D01*
X144000000Y-76000000D02*
X144735000Y-76000000D01*
D18*
%TO.N,GND1*%
X122000000Y-71000000D02*
X122000000Y-88000000D01*
X124500000Y-90500000D02*
X122000000Y-88000000D01*
X148500000Y-88000000D02*
X148500000Y-90500000D01*
X148500000Y-90500000D02*
X124500000Y-90500000D01*
D17*
%TO.N,Net-(A1-~{RST})*%
X144200000Y-57660000D02*
X144200000Y-60200000D01*
D18*
%TO.N,GND1*%
X124000000Y-64500000D02*
X124000000Y-69000000D01*
X124000000Y-69000000D02*
X122000000Y-71000000D01*
X129460000Y-48000000D02*
X131500000Y-50040000D01*
X119000000Y-64500000D02*
X119000000Y-48000000D01*
X119000000Y-64500000D02*
X118000000Y-64500000D01*
X119000000Y-48000000D02*
X129460000Y-48000000D01*
X119000000Y-64500000D02*
X124000000Y-64500000D01*
D17*
%TO.N,Net-(A1-M2)*%
X144320000Y-55000000D02*
X144200000Y-55120000D01*
%TO.N,Net-(A1-M0)*%
X144200000Y-50040000D02*
X144160000Y-50000000D01*
%TO.N,Net-(A1-A1)*%
X123000000Y-57660000D02*
X122500000Y-57160000D01*
X131500000Y-57660000D02*
X123000000Y-57660000D01*
%TO.N,Net-(A1-B1)*%
X127000000Y-53500000D02*
X122760000Y-53500000D01*
X128620000Y-55120000D02*
X127000000Y-53500000D01*
X122760000Y-53500000D02*
X122500000Y-53240000D01*
X131500000Y-55120000D02*
X128620000Y-55120000D01*
%TO.N,Net-(A1-STEP)*%
X143960000Y-62500000D02*
X144200000Y-62740000D01*
X144200000Y-62740000D02*
X144200000Y-62800000D01*
%TO.N,Net-(A1-B2)*%
X131500000Y-52580000D02*
X129080000Y-52580000D01*
X129080000Y-52580000D02*
X127200000Y-50700000D01*
X127200000Y-50700000D02*
X122500000Y-50700000D01*
%TO.N,Net-(A1-~{EN})*%
X144200000Y-47500000D02*
X143500000Y-47500000D01*
%TO.N,Net-(A1-A2)*%
X131500000Y-60200000D02*
X123000000Y-60200000D01*
X123000000Y-60200000D02*
X122500000Y-59700000D01*
%TO.N,Net-(A1-M1)*%
X144620000Y-53000000D02*
X144200000Y-52580000D01*
%TO.N,Net-(A1-M0)*%
X144200000Y-50040000D02*
X144240000Y-50000000D01*
X144240000Y-50000000D02*
X146000000Y-50000000D01*
X147395000Y-70195000D02*
X144350000Y-73240000D01*
X146000000Y-50000000D02*
X147500000Y-51500000D01*
X147500000Y-51500000D02*
X147500000Y-70195000D01*
X147500000Y-70195000D02*
X147395000Y-70195000D01*
%TD*%
M02*
