%TF.GenerationSoftware,KiCad,Pcbnew,8.0.6*%
%TF.CreationDate,2024-10-27T14:48:02-04:00*%
%TF.ProjectId,gameboy,67616d65-626f-4792-9e6b-696361645f70,rev?*%
%TF.SameCoordinates,Original*%
%TF.FileFunction,Copper,L1,Top*%
%TF.FilePolarity,Positive*%
%FSLAX46Y46*%
G04 Gerber Fmt 4.6, Leading zero omitted, Abs format (unit mm)*
G04 Created by KiCad (PCBNEW 8.0.6) date 2024-10-27 14:48:02*
%MOMM*%
%LPD*%
G01*
G04 APERTURE LIST*
%TA.AperFunction,Conductor*%
%ADD10C,4.709772*%
%TD*%
%TA.AperFunction,Conductor*%
%ADD11C,0.200000*%
%TD*%
%TA.AperFunction,Conductor*%
%ADD12C,3.705551*%
%TD*%
%TA.AperFunction,SMDPad,CuDef*%
%ADD13R,1.700000X1.400000*%
%TD*%
%TA.AperFunction,ComponentPad*%
%ADD14C,2.100000*%
%TD*%
%TA.AperFunction,SMDPad,CuDef*%
%ADD15R,1.400000X1.700000*%
%TD*%
%TA.AperFunction,Conductor*%
%ADD16C,0.400000*%
%TD*%
G04 APERTURE END LIST*
%TO.N,unconnected-(R3-Pad2)*%
D10*
X187854886Y-76000000D02*
G75*
G02*
X183145114Y-76000000I-2354886J0D01*
G01*
X183145114Y-76000000D02*
G75*
G02*
X187854886Y-76000000I2354886J0D01*
G01*
%TO.N,unconnected-(R1-Pad1)*%
D11*
X156500000Y-84000000D02*
X164500000Y-84000000D01*
X164500000Y-86500000D01*
X156500000Y-86500000D01*
X156500000Y-84000000D01*
%TA.AperFunction,Conductor*%
G36*
X156500000Y-84000000D02*
G01*
X164500000Y-84000000D01*
X164500000Y-86500000D01*
X156500000Y-86500000D01*
X156500000Y-84000000D01*
G37*
%TD.AperFunction*%
%TO.N,unconnected-(R2-Pad1)*%
X146000000Y-84000000D02*
X154000000Y-84000000D01*
X154000000Y-86500000D01*
X146000000Y-86500000D01*
X146000000Y-84000000D01*
%TA.AperFunction,Conductor*%
G36*
X146000000Y-84000000D02*
G01*
X154000000Y-84000000D01*
X154000000Y-86500000D01*
X146000000Y-86500000D01*
X146000000Y-84000000D01*
G37*
%TD.AperFunction*%
%TO.N,unconnected-(R5-Pad1)*%
D12*
X139852775Y-81500000D02*
G75*
G02*
X136147225Y-81500000I-1852775J0D01*
G01*
X136147225Y-81500000D02*
G75*
G02*
X139852775Y-81500000I1852775J0D01*
G01*
%TO.N,unconnected-(R6-Pad1)*%
X130852775Y-90500000D02*
G75*
G02*
X127147225Y-90500000I-1852775J0D01*
G01*
X127147225Y-90500000D02*
G75*
G02*
X130852775Y-90500000I1852775J0D01*
G01*
%TO.N,unconnected-(R7-Pad1)*%
X130852775Y-72000000D02*
G75*
G02*
X127147225Y-72000000I-1852775J0D01*
G01*
X127147225Y-72000000D02*
G75*
G02*
X130852775Y-72000000I1852775J0D01*
G01*
%TO.N,unconnected-(R4-Pad1)*%
D10*
X176354886Y-88500000D02*
G75*
G02*
X171645114Y-88500000I-2354886J0D01*
G01*
X171645114Y-88500000D02*
G75*
G02*
X176354886Y-88500000I2354886J0D01*
G01*
%TO.N,unconnected-(R8-Pad1)*%
D12*
X123352775Y-81500000D02*
G75*
G02*
X119647225Y-81500000I-1852775J0D01*
G01*
X119647225Y-81500000D02*
G75*
G02*
X123352775Y-81500000I1852775J0D01*
G01*
%TD*%
D13*
%TO.P,R1,1*%
%TO.N,unconnected-(R1-Pad1)*%
X161000000Y-80500000D03*
%TO.P,R1,2*%
%TO.N,unconnected-(R1-Pad2)*%
X161000000Y-77100000D03*
%TD*%
D14*
%TO.P,J1,1,Pin_1*%
%TO.N,unconnected-(J1-Pin_1-Pad1)*%
X143720000Y-62500000D03*
%TO.P,J1,2,Pin_2*%
%TO.N,unconnected-(J1-Pin_2-Pad2)*%
X146260000Y-62500000D03*
%TO.P,J1,3,Pin_3*%
%TO.N,unconnected-(J1-Pin_3-Pad3)*%
X148800000Y-62500000D03*
%TO.P,J1,4,Pin_4*%
%TO.N,unconnected-(J1-Pin_4-Pad4)*%
X151340000Y-62500000D03*
%TO.P,J1,5,Pin_5*%
%TO.N,unconnected-(J1-Pin_5-Pad5)*%
X153880000Y-62500000D03*
%TO.P,J1,6,Pin_6*%
%TO.N,unconnected-(J1-Pin_6-Pad6)*%
X156420000Y-62500000D03*
%TO.P,J1,7,Pin_7*%
%TO.N,unconnected-(J1-Pin_7-Pad7)*%
X158960000Y-62500000D03*
%TO.P,J1,8,Pin_8*%
%TO.N,unconnected-(J1-Pin_8-Pad8)*%
X161500000Y-62500000D03*
%TD*%
D15*
%TO.P,R3,1*%
%TO.N,unconnected-(R3-Pad1)*%
X178500000Y-66500000D03*
%TO.P,R3,2*%
%TO.N,unconnected-(R3-Pad2)*%
X181900000Y-66500000D03*
%TD*%
D13*
%TO.P,R4,1*%
%TO.N,unconnected-(R4-Pad1)*%
X174000000Y-76500000D03*
%TO.P,R4,2*%
%TO.N,unconnected-(R4-Pad2)*%
X174000000Y-73100000D03*
%TD*%
%TO.P,R8,1*%
%TO.N,unconnected-(R8-Pad1)*%
X121500000Y-70700000D03*
%TO.P,R8,2*%
%TO.N,unconnected-(R8-Pad2)*%
X121500000Y-67300000D03*
%TD*%
%TO.P,R6,1*%
%TO.N,unconnected-(R6-Pad1)*%
X129000000Y-82700000D03*
%TO.P,R6,2*%
%TO.N,unconnected-(R6-Pad2)*%
X129000000Y-79300000D03*
%TD*%
%TO.P,R2,1*%
%TO.N,unconnected-(R2-Pad1)*%
X150000000Y-80700000D03*
%TO.P,R2,2*%
%TO.N,unconnected-(R2-Pad2)*%
X150000000Y-77300000D03*
%TD*%
D15*
%TO.P,R7,1*%
%TO.N,unconnected-(R7-Pad1)*%
X134300000Y-67000000D03*
%TO.P,R7,2*%
%TO.N,unconnected-(R7-Pad2)*%
X137700000Y-67000000D03*
%TD*%
%TO.P,R5,1*%
%TO.N,unconnected-(R5-Pad1)*%
X143300000Y-76000000D03*
%TO.P,R5,2*%
%TO.N,unconnected-(R5-Pad2)*%
X146700000Y-76000000D03*
%TD*%
D16*
%TO.N,unconnected-(J1-Pin_1-Pad1)*%
X125100000Y-65000000D02*
X121500000Y-65000000D01*
%TO.N,unconnected-(J1-Pin_6-Pad6)*%
X156420000Y-74920000D02*
X156500000Y-75000000D01*
X156500000Y-75000000D02*
X160500000Y-75000000D01*
X161000000Y-75500000D02*
X161000000Y-77000000D01*
X160500000Y-75000000D02*
X161000000Y-75500000D01*
X156420000Y-62500000D02*
X156420000Y-74920000D01*
%TO.N,unconnected-(J1-Pin_4-Pad4)*%
X151500000Y-62660000D02*
X151340000Y-62500000D01*
X151340000Y-62500000D02*
X151340000Y-71160000D01*
X151340000Y-71660000D02*
X147000000Y-76000000D01*
X151340000Y-71160000D02*
X151340000Y-71660000D01*
%TO.N,unconnected-(J1-Pin_7-Pad7)*%
X159000000Y-64227767D02*
X159000000Y-62540000D01*
X159000000Y-62540000D02*
X158960000Y-62500000D01*
X174000000Y-67500000D02*
X174000000Y-72500000D01*
X159000000Y-67500000D02*
X174000000Y-67500000D01*
X159000000Y-64227767D02*
X159000000Y-67500000D01*
%TO.N,unconnected-(J1-Pin_1-Pad1)*%
X125100000Y-65000000D02*
X143500000Y-65000000D01*
X143500000Y-65000000D02*
X143500000Y-62500000D01*
%TO.N,unconnected-(J1-Pin_2-Pad2)*%
X146500000Y-62740000D02*
X146260000Y-62500000D01*
%TO.N,unconnected-(J1-Pin_5-Pad5)*%
X153880000Y-62500000D02*
X153880000Y-74880000D01*
X153880000Y-74880000D02*
X150120000Y-74880000D01*
%TO.N,unconnected-(J1-Pin_8-Pad8)*%
X161500000Y-62500000D02*
X161500000Y-66500000D01*
%TO.N,unconnected-(J1-Pin_3-Pad3)*%
X142400000Y-72000000D02*
X148500000Y-72000000D01*
X148500000Y-72000000D02*
X148500000Y-63000000D01*
X142400000Y-72000000D02*
X137000000Y-72000000D01*
%TO.N,unconnected-(R1-Pad1)*%
X161000000Y-80500000D02*
X161000000Y-85000000D01*
%TO.N,unconnected-(R2-Pad1)*%
X150000000Y-85250000D02*
X150000000Y-81000000D01*
%TO.N,unconnected-(R2-Pad2)*%
X150000000Y-77300000D02*
X150000000Y-75000000D01*
%TO.N,unconnected-(R3-Pad2)*%
X185500000Y-67000000D02*
X185000000Y-66500000D01*
X185500000Y-72390228D02*
X185500000Y-67000000D01*
X185000000Y-66500000D02*
X182500000Y-66500000D01*
%TO.N,unconnected-(R3-Pad1)*%
X178500000Y-66500000D02*
X161500000Y-66500000D01*
%TO.N,unconnected-(R4-Pad1)*%
X174000000Y-76500000D02*
X174000000Y-84000000D01*
%TO.N,unconnected-(R5-Pad1)*%
X143300000Y-76200000D02*
X138000000Y-81500000D01*
X143300000Y-76000000D02*
X143300000Y-76200000D01*
%TO.N,unconnected-(R6-Pad1)*%
X129000000Y-82700000D02*
X129000000Y-90500000D01*
%TO.N,unconnected-(R6-Pad2)*%
X129700000Y-79300000D02*
X137000000Y-72000000D01*
X129000000Y-79300000D02*
X129700000Y-79300000D01*
%TO.N,unconnected-(R7-Pad2)*%
X137700000Y-67000000D02*
X146500000Y-67000000D01*
X146500000Y-67000000D02*
X146500000Y-63000000D01*
%TO.N,unconnected-(R7-Pad1)*%
X129000000Y-72000000D02*
X129000000Y-67000000D01*
X129000000Y-67000000D02*
X134000000Y-67000000D01*
%TO.N,unconnected-(R8-Pad2)*%
X121500000Y-65000000D02*
X121500000Y-67000000D01*
%TO.N,unconnected-(R8-Pad1)*%
X121500000Y-70700000D02*
X121500000Y-81000000D01*
%TD*%
M02*
