0
SECTION
2
HEADER
9
$INSUNITS
70
4
9
$ACADVER
1
AC1014
9
$HANDSEED
5
FFFF
0
ENDSEC
0
SECTION
2
TABLES
0
TABLE
2
VPORT
5
8
100
AcDbSymbolTable
0
ENDTAB
0
TABLE
2
LTYPE
5
5
100
AcDbSymbolTable
0
LTYPE
5
14
100
AcDbSymbolTableRecord
100
AcDbLinetypeTableRecord
2
BYBLOCK
70
0
0
LTYPE
5
15
100
AcDbSymbolTableRecord
100
AcDbLinetypeTableRecord
2
BYLAYER
70
0
0
ENDTAB
0
TABLE
2
LAYER
5
2
100
AcDbSymbolTable
70
2
0
LAYER
5
50
100
AcDbSymbolTableRecord
100
AcDbLayerTableRecord
2
0
70
0
6
CONTINUOUS
0
ENDTAB
0
TABLE
2
STYLE
5
3
100
AcDbSymbolTable
70
1
0
STYLE
5
11
100
AcDbSymbolTableRecord
100
AcDbTextStyleTableRecord
2
STANDARD
70
0
0
ENDTAB
0
TABLE
2
VIEW
5
6
100
AcDbSymbolTable
70
0
0
ENDTAB
0
TABLE
2
UCS
5
7
100
AcDbSymbolTable
70
0
0
ENDTAB
0
TABLE
2
APPID
5
9
100
AcDbSymbolTable
70
2
0
APPID
5
12
100
AcDbSymbolTableRecord
100
AcDbRegAppTableRecord
2
ACAD
70
0
0
ENDTAB
0
TABLE
2
DIMSTYLE
5
A
100
AcDbSymbolTable
70
1
0
ENDTAB
0
TABLE
2
BLOCK_RECORD
5
1
100
AcDbSymbolTable
70
1
0
BLOCK_RECORD
5
1F
100
AcDbSymbolTableRecord
100
AcDbBlockTableRecord
2
*MODEL_SPACE
0
BLOCK_RECORD
5
1B
100
AcDbSymbolTableRecord
100
AcDbBlockTableRecord
2
*PAPER_SPACE
0
ENDTAB
0
ENDSEC
0
SECTION
2
BLOCKS
0
BLOCK
5
20
100
AcDbEntity
100
AcDbBlockBegin
2
*MODEL_SPACE
0
ENDBLK
5
21
100
AcDbEntity
100
AcDbBlockEnd
0
BLOCK
5
1C
100
AcDbEntity
100
AcDbBlockBegin
2
*PAPER_SPACE
0
ENDBLK
5
1D
100
AcDbEntity
100
AcDbBlockEnd
0
ENDSEC
0
SECTION
2
ENTITIES
0
LWPOLYLINE
5
100
100
AcDbEntity
8
0
100
AcDbPolyline
90
120
70
1
43
0.0
10
-97.632294130715735
20
41.279425402462884
10
-99.577465270237923
20
40.504054245896938
42
0.088671398211902674
10
-107.4430241361259
20
3.4995091775650966
10
-105.98139373863739
20
2
10
-55.099999999999994
20
2.0000000000000013
42
-0.41421356237305273
10
-55
20
1.8999999999999999
10
-55
20
-1.8999999999999999
42
-0.41421356237305273
10
-55.099999999999994
20
-2
10
-105.98139373863739
20
-2
10
-107.44302413612594
20
-3.4995091775650939
42
0.088671398211902439
10
-99.57746527023798
20
-40.504054245896853
10
-97.632294130715792
20
-41.279425402462806
10
-51.149828002258914
20
-20.584098118191388
42
-0.41421356237309509
10
-51.017799792187077
20
-20.63477899964807
10
-49.472200548499032
20
-24.106251738689956
42
-0.41421356237309509
10
-49.52288142995571
20
-24.238279948761793
10
-96.005347558412581
20
-44.9336072330332
10
-96.730708039646416
20
-46.897975672183236
42
0.088671398211902508
10
-74.494058026253569
20
-77.504098722462217
10
-72.401683906046131
20
-77.421263141032981
10
-38.35538606132787
20
-39.609018671086702
42
-0.41421356237307672
10
-38.214158518144252
20
-39.601617249174851
10
-35.390208181330152
20
-42.144313553338513
42
-0.41421356237311335
10
-35.382806759418301
20
-42.285541096522145
10
-69.429104604136555
20
-80.097785566468417
10
-69.292773752217229
20
-82.187356118347282
42
0.088671398211902508
10
-36.529951392258518
20
-101.10298042728134
10
-34.652164785371923
20
-100.17626113242359
10
-18.928949422649918
20
-51.785180059113067
42
-0.41421356237310536
10
-18.802942071582905
20
-51.72097610692105
10
-15.18892730966132
20
-52.895240685545851
42
-0.41421356237308266
10
-15.124723357469298
20
-53.02124803661286
10
-30.847938720191301
20
-101.41232910992338
10
-29.873489377942597
20
-103.26579604295873
42
0.088671398211902508
10
7.7505157016479354
20
-107.22023832448103
10
9.0890284317273178
20
-105.60987350125623
10
3.7704745353111506
20
-55.007213361327167
42
-0.4142135623731083
10
3.8594738785212135
20
-54.89730832546357
10
7.6386570809206509
20
-54.50010016504649
42
-0.41421356237308449
10
7.7485621167842442
20
-54.589099508256552
10
13.06711601320041
20
-105.19175964818564
10
14.711192701909333
20
-106.48864169143718
42
0.088671398211902439
10
50.69084821951477
20
-94.798142950092199
10
51.258646061749801
20
-92.782579306141031
10
25.817949192431119
20
-48.717999748522573
42
-0.41421356237308854
10
25.854551732809558
20
-48.581397208144132
10
29.145448267190424
20
-46.681397208144126
42
-0.41421356237310153
10
29.282050807568865
20
-46.717999748522573
10
54.722747676887558
20
-90.782579306141031
10
56.752175916611101
20
-91.298633772527111
42
0.088671398211902439
10
84.86627256832854
20
-65.984587445540384
10
84.565178117515359
20
-63.912334245722832
10
43.401265885474643
20
-34.005001390065168
42
-0.41421356237311313
10
43.379142711266411
20
-33.86532116539842
10
45.612726669977796
20
-30.791056586773628
42
-0.41421356237309787
10
45.752406894644544
20
-30.768933412565382
10
86.916319126685238
20
-60.676266268223031
10
88.980192337998446
20
-60.322262652297816
42
0.088671398211902591
10
104.3675474041961
20
-25.761697320496502
10
103.24962262623741
20
-23.991065968890446
10
53.480109418797156
20
-13.412229365526169
42
-0.41421356237309642
10
53.403085827805555
20
-13.293623436371016
10
54.19315025291305
20
-9.5766625535825547
42
-0.41421356237309365
10
54.311756182068208
20
-9.4996389625909501
10
104.08126938950845
20
-20.078475565955223
10
105.82272514447575
20
-18.915624308934078
42
0.088671398211902508
10
105.82272514447578
20
18.915624308933946
10
104.08126938950846
20
20.078475565955152
10
54.311756182068208
20
9.4996389625909146
42
-0.41421356237309365
10
54.19315025291305
20
9.5766625535825174
10
53.403085827805576
20
13.293623436370979
42
-0.41421356237309642
10
53.480109418797177
20
13.412229365526134
10
103.24962262623743
20
23.991065968890375
10
104.36754740419613
20
25.761697320496467
42
0.088671398211902508
10
88.98019233799846
20
60.322262652297766
10
86.916319126685252
20
60.676266268223017
10
45.752406894644572
20
30.768933412565374
42
-0.41421356237311313
10
45.61272666997781
20
30.791056586773621
10
43.379142711266418
20
33.86532116539842
42
-0.41421356237307688
10
43.401265885474665
20
34.005001390065161
10
84.565178117515373
20
63.912334245722811
10
84.866272568328611
20
65.984587445540313
42
0.088671398211902355
10
56.752175916611201
20
91.29863377252704
10
54.722747676887622
20
90.782579306141002
10
29.282050807568897
20
46.717999748522558
42
-0.41421356237310153
10
29.14544826719046
20
46.681397208144119
10
25.854551732809593
20
48.581397208144104
42
-0.41421356237308854
10
25.817949192431151
20
48.717999748522551
10
51.258646061749864
20
92.782579306141002
10
50.690848219514848
20
94.798142950092171
42
0.088671398211902355
10
14.711192701909489
20
106.48864169143714
10
13.067116013200506
20
105.19175964818561
10
7.7485621167842957
20
54.589099508256552
42
-0.41421356237308177
10
7.6386570809207024
20
54.50010016504649
10
3.8594738785212632
20
54.89730832546357
42
-0.41421356237310847
10
3.7704745353112017
20
55.007213361327167
10
9.0890284317274137
20
105.60987350125622
10
7.7505157016480215
20
107.22023832448103
42
0.088671398211902674
10
-29.873489377942597
20
103.26579604295873
10
-30.847938720191269
20
101.41232910992338
10
-15.124723357469282
20
53.021248036612867
42
-0.41421356237308471
10
-15.188927309661304
20
52.895240685545851
10
-18.802942071582891
20
51.72097610692105
42
-0.41421356237310736
10
-18.9289494226499
20
51.785180059113074
10
-34.652164785371887
20
100.17626113242359
10
-36.529951392258518
20
101.10298042728132
42
0.088671398211902189
10
-69.29277375221713
20
82.187356118347338
10
-69.429104604136526
20
80.097785566468445
10
-35.38280675941828
20
42.285541096522159
42
-0.41421356237310469
10
-35.390208181330138
20
42.144313553338534
10
-38.214158518144231
20
39.601617249174879
42
-0.41421356237308532
10
-38.355386061327856
20
39.60901867108673
10
-72.401683906046102
20
77.421263141033023
10
-74.494058026253498
20
77.504098722462288
42
0.088671398211902189
10
-96.730708039646316
20
46.897975672183357
10
-96.005347558412524
20
44.933607233033285
10
-49.522881429955689
20
24.238279948761836
42
-0.41421356237310697
10
-49.472200548499004
20
24.106251738689991
10
-51.017799792187049
20
20.634778999648113
42
-0.41421356237308316
10
-51.149828002258886
20
20.584098118191434
0
LWPOLYLINE
5
101
100
AcDbEntity
8
0
100
AcDbPolyline
90
120
70
1
43
0.0
10
-96.730708039646345
20
46.897975672183321
10
-96.005347558412524
20
44.933607233033293
10
-49.522881429955689
20
24.238279948761836
42
-0.41421356237310158
10
-49.472200548499004
20
24.106251738689991
10
-51.017799792187041
20
20.634778999648109
42
-0.4142135623730554
10
-51.149828002258886
20
20.584098118191427
10
-97.632294130715735
20
41.279425402462877
10
-99.577465270237937
20
40.504054245896924
42
0.088671398211902674
10
-107.44302413612593
20
3.4995091775651055
10
-105.98139373863739
20
2
10
-55.099999999999994
20
1.9999999999999978
42
-0.41421356237309509
10
-55
20
1.8999999999999999
10
-55
20
-1.8999999999999999
42
-0.41421356237309509
10
-55.099999999999994
20
-2
10
-105.98139373863739
20
-2.0000000000000107
10
-107.44302413612594
20
-3.4995091775650962
42
0.088671398211902508
10
-99.577465270237937
20
-40.504054245896839
10
-97.63229413071582
20
-41.279425402462806
10
-51.1498280022589
20
-20.584098118191395
42
-0.41421356237314261
10
-51.017799792187084
20
-20.634778999648073
10
-49.472200548499018
20
-24.106251738689952
42
-0.41421356237313461
10
-49.52288142995571
20
-24.2382799487618
10
-96.005347558412581
20
-44.9336072330332
10
-96.730708039646373
20
-46.897975672183286
42
0.088671398211902439
10
-74.494058026253526
20
-77.504098722462231
10
-72.401683906046131
20
-77.421263141032981
10
-38.35538606132787
20
-39.609018671086702
42
-0.41421356237307672
10
-38.214158518144252
20
-39.601617249174851
10
-35.390208181330166
20
-42.14431355333852
42
-0.41421356237307472
10
-35.382806759418301
20
-42.285541096522138
10
-69.429104604136541
20
-80.097785566468417
10
-69.292773752217215
20
-82.18735611834731
42
0.088671398211902508
10
-36.529951392258546
20
-101.10298042728132
10
-34.652164785371923
20
-100.1762611324236
10
-18.928949422649925
20
-51.785180059113074
42
-0.41421356237315687
10
-18.802942071582905
20
-51.72097610692105
10
-15.188927309661324
20
-52.895240685545858
42
-0.41421356237304574
10
-15.124723357469298
20
-53.02124803661286
10
-30.847938720191305
20
-101.41232910992338
10
-29.873489377942597
20
-103.26579604295874
42
0.088671398211902591
10
7.750515701647922
20
-107.22023832448102
10
9.0890284317273178
20
-105.60987350125626
10
3.7704745353111657
20
-55.00721336132716
42
-0.41421356237305507
10
3.8594738785212144
20
-54.897308325463584
10
7.6386570809206509
20
-54.50010016504649
42
-0.41421356237303869
10
7.7485621167842433
20
-54.589099508256552
10
13.067116013200419
20
-105.19175964818564
10
14.711192701909406
20
-106.48864169143715
42
0.088671398211902355
10
50.69084821951477
20
-94.798142950092199
10
51.258646061749801
20
-92.782579306141031
10
25.817949192431122
20
-48.717999748522573
42
-0.4142135623730353
10
25.854551732809558
20
-48.581397208144132
10
29.145448267190417
20
-46.681397208144126
42
-0.41421356237301921
10
29.282050807568865
20
-46.717999748522573
10
54.722747676887558
20
-90.782579306141017
10
56.752175916611129
20
-91.298633772527097
42
0.088671398211902439
10
84.866272568328583
20
-65.984587445540342
10
84.565178117515359
20
-63.912334245722832
10
43.401265885474643
20
-34.005001390065161
42
-0.4142135623730453
10
43.379142711266411
20
-33.865321165398427
10
45.61272666997781
20
-30.791056586773635
42
-0.41421356237310558
10
45.752406894644544
20
-30.768933412565382
10
86.916319126685238
20
-60.676266268223031
10
88.98019233799846
20
-60.322262652297781
42
0.088671398211902272
10
104.36754740419613
20
-25.761697320496538
10
103.24962262623741
20
-23.991065968890446
10
53.480109418797156
20
-13.412229365526166
42
-0.41421356237308637
10
53.403085827805555
20
-13.293623436371016
10
54.19315025291305
20
-9.5766625535825547
42
-0.41421356237314433
10
54.311756182068208
20
-9.4996389625909536
10
104.08126938950844
20
-20.078475565955216
10
105.82272514447578
20
-18.91562430893401
42
0.088671398211902355
10
105.82272514447578
20
18.915624308933992
10
104.08126938950846
20
20.078475565955152
10
54.311756182068208
20
9.4996389625909199
42
-0.41421356237314799
10
54.19315025291305
20
9.5766625535825192
10
53.403085827805569
20
13.29362343637098
42
-0.41421356237307727
10
53.480109418797177
20
13.412229365526137
10
103.24962262623743
20
23.991065968890382
10
104.36754740419616
20
25.761697320496456
42
0.088671398211902674
10
88.98019233799846
20
60.322262652297802
10
86.916319126685266
20
60.676266268223017
10
45.752406894644572
20
30.76893341256536
42
-0.41421356237311791
10
45.61272666997781
20
30.791056586773621
10
43.379142711266425
20
33.86532116539842
42
-0.41421356237302998
10
43.401265885474665
20
34.005001390065161
10
84.565178117515359
20
63.912334245722818
10
84.866272568328625
20
65.984587445540271
42
0.088671398211902508
10
56.752175916611172
20
91.298633772527054
10
54.722747676887622
20
90.782579306141002
10
29.282050807568893
20
46.717999748522566
42
-0.41421356237302093
10
29.14544826719046
20
46.681397208144119
10
25.85455173280959
20
48.581397208144104
42
-0.41421356237303697
10
25.817949192431151
20
48.717999748522551
10
51.25864606174985
20
92.782579306141002
10
50.690848219514876
20
94.798142950092185
42
0.088671398211902591
10
14.711192701909431
20
106.48864169143718
10
13.067116013200506
20
105.19175964818561
10
7.7485621167842957
20
54.589099508256552
42
-0.41421356237303614
10
7.6386570809207024
20
54.50010016504649
10
3.8594738785212628
20
54.89730832546357
42
-0.41421356237315016
10
3.7704745353112035
20
55.007213361327167
10
9.0890284317274137
20
105.60987350125622
10
7.7505157016480464
20
107.22023832448102
42
0.088671398211902758
10
-29.873489377942573
20
103.26579604295873
10
-30.847938720191273
20
101.41232910992341
10
-15.124723357469277
20
53.021248036612867
42
-0.41421356237306628
10
-15.188927309661304
20
52.895240685545851
10
-18.802942071582887
20
51.720976106921057
42
-0.41421356237321222
10
-18.9289494226499
20
51.785180059113074
10
-34.652164785371895
20
100.17626113242359
10
-36.529951392258496
20
101.10298042728132
42
0.088671398211902508
10
-69.292773752217201
20
82.187356118347338
10
-69.429104604136541
20
80.097785566468474
10
-35.382806759418287
20
42.285541096522152
42
-0.41421356237304185
10
-35.390208181330145
20
42.144313553338542
10
-38.214158518144238
20
39.601617249174879
42
-0.41421356237305834
10
-38.355386061327856
20
39.609018671086737
10
-72.401683906046102
20
77.421263141033037
10
-74.49405802625347
20
77.504098722462288
42
0.088671398211902439
0
LWPOLYLINE
5
102
100
AcDbEntity
8
0
100
AcDbPolyline
90
90
70
1
43
0.0
10
84.75097195166073
20
-63.800107772170662
10
43.599724635370649
20
-33.901976516419431
10
45.715751543623554
20
-30.989515336669623
10
86.866998859913622
20
-60.887646592420822
10
89.097899707305373
20
-60.504993742227157
42
0.089070068600513488
10
104.58210467152821
20
-25.726899977912424
10
103.3737071203621
20
-23.812972823345149
10
53.619506517034097
20
-13.237391014461181
10
54.367988603978034
20
-9.7160596518194833
10
104.12218920730598
20
-20.291641460703431
10
106.00457960714061
20
-19.034681565851916
42
0.089070068600513488
10
106.00457960714064
20
19.034681565851869
10
104.12218920730602
20
20.291641460703389
10
54.367988603978034
20
9.7160596518194513
10
53.619506517034111
20
13.237391014461149
10
103.37370712036211
20
23.812972823345142
10
104.58210467152826
20
25.726899977912421
42
0.089070068600513405
10
89.097899707305444
20
60.504993742227157
10
86.866998859913608
20
60.887646592420801
10
45.715751543623568
20
30.989515336669591
10
43.599724635370663
20
33.90197651641941
10
84.750971951660688
20
63.800107772170627
10
85.0764337396147
20
66.040066793946735
42
0.089070068600513488
10
56.7853835190691
20
91.513442829959303
10
54.591715247732225
20
90.955624481404683
10
29.158845726812018
20
46.904602288901003
10
26.041154273188045
20
48.704602288900993
10
51.474023794108206
20
92.75562448140461
10
50.860274518985207
20
94.934306106135637
42
0.089070068600513572
10
14.654158641371797
20
106.69838627886321
10
12.877028119054506
20
105.29654859164597
10
7.5601105840374032
20
54.709457390446914
10
3.9798317607116189
20
55.085759858210452
10
9.2967492957286719
20
105.67285105940952
10
7.8499117829346954
20
107.41354144147809
42
0.089070068600513738
10
-30.010903394270581
20
103.43420941574291
10
-31.064214155535723
20
101.43074286127845
10
-15.345836360165805
20
53.054550289367413
10
-18.769639818828367
20
51.942089109617562
10
-34.488017614198263
20
100.31828168152863
10
-36.517772014595167
20
101.31999964019961
42
0.089070068600513405
10
-69.486807592545404
20
82.2853180743477
10
-69.634171593107752
20
80.026640220825328
10
-35.598348785149653
20
42.226029457798134
10
-38.27367015686827
20
39.817159274906253
10
-72.309492964826362
20
77.617770037933383
10
-74.571201277257586
20
77.707309437830503
42
0.089070068600513252
10
-96.947811490239843
20
46.908547699251109
10
-96.16374815564221
20
44.785204466988745
10
-49.695583304335102
20
24.096244521540903
10
-51.159835219407988
20
20.807480874027537
10
-97.628000070715132
20
41.496440819475353
10
-99.730592380986394
20
40.65831948491649
42
0.089070068600513572
10
-107.64565803805422
20
3.4208632761763536
10
-106.06573904184032
20
1.7999999999999985
10
-55.199999999999996
20
1.8000000000000007
10
-55.199999999999996
20
-1.8000000000000003
10
-106.06573904184032
20
-1.8000000000000043
10
-107.64565803805424
20
-3.4208632761763358
42
0.089070068600513405
10
-99.730592380986394
20
-40.658319484916404
10
-97.62800007071516
20
-41.496440819475296
10
-51.159835219408016
20
-20.807480874027494
10
-49.695583304335138
20
-24.096244521540861
10
-96.163748155642267
20
-44.78520446698866
10
-96.947811490239928
20
-46.908547699251045
42
0.089070068600513252
10
-74.5712012772576
20
-77.707309437830446
10
-72.309492964826333
20
-77.617770037933312
10
-38.273670156868278
20
-39.817159274906217
10
-35.598348785149668
20
-42.226029457798106
10
-69.634171593107709
20
-80.026640220825215
10
-69.486807592545404
20
-82.2853180743477
42
0.089070068600513405
10
-36.517772014595209
20
-101.31999964019955
10
-34.488017614198291
20
-100.31828168152863
10
-18.769639818828388
20
-51.942089109617569
10
-15.345836360165828
20
-53.054550289367405
10
-31.064214155535726
20
-101.43074286127847
10
-30.010903394270642
20
-103.43420941574287
42
0.089070068600513336
10
7.8499117829344911
20
-107.41354144147817
10
9.2967492957286169
20
-105.67285105940954
10
3.9798317607115701
20
-55.085759858210473
10
7.5601105840373526
20
-54.709457390446914
10
12.877028119054433
20
-105.29654859164596
10
14.654158641371806
20
-106.69838627886321
42
0.089070068600513169
10
50.860274518985094
20
-94.934306106135722
10
51.474023794108142
20
-92.755624481404638
10
26.041154273188013
20
-48.704602288901015
10
29.158845726811975
20
-46.904602288901025
10
54.591715247732182
20
-90.955624481404683
10
56.785383519069079
20
-91.513442829959359
42
0.089070068600513488
10
85.0764337396146
20
-66.040066793946835
0
ENDSEC
0
SECTION
2
OBJECTS
0
DICTIONARY
5
C
100
AcDbDictionary
3
ACAD_GROUP
350
D
3
ACAD_MLINESTYLE
350
17
0
DICTIONARY
5
D
100
AcDbDictionary
0
DICTIONARY
5
1A
330
C
100
AcDbDictionary
0
DICTIONARY
5
17
100
AcDbDictionary
0
ENDSEC
0
EOF
