0
SECTION
2
HEADER
9
$INSUNITS
70
4
9
$ACADVER
1
AC1014
9
$HANDSEED
5
FFFF
0
ENDSEC
0
SECTION
2
TABLES
0
TABLE
2
VPORT
5
8
100
AcDbSymbolTable
0
ENDTAB
0
TABLE
2
LTYPE
5
5
100
AcDbSymbolTable
0
LTYPE
5
14
100
AcDbSymbolTableRecord
100
AcDbLinetypeTableRecord
2
BYBLOCK
70
0
0
LTYPE
5
15
100
AcDbSymbolTableRecord
100
AcDbLinetypeTableRecord
2
BYLAYER
70
0
0
ENDTAB
0
TABLE
2
LAYER
5
2
100
AcDbSymbolTable
70
2
0
LAYER
5
50
100
AcDbSymbolTableRecord
100
AcDbLayerTableRecord
2
0
70
0
6
CONTINUOUS
0
ENDTAB
0
TABLE
2
STYLE
5
3
100
AcDbSymbolTable
70
1
0
STYLE
5
11
100
AcDbSymbolTableRecord
100
AcDbTextStyleTableRecord
2
STANDARD
70
0
0
ENDTAB
0
TABLE
2
VIEW
5
6
100
AcDbSymbolTable
70
0
0
ENDTAB
0
TABLE
2
UCS
5
7
100
AcDbSymbolTable
70
0
0
ENDTAB
0
TABLE
2
APPID
5
9
100
AcDbSymbolTable
70
2
0
APPID
5
12
100
AcDbSymbolTableRecord
100
AcDbRegAppTableRecord
2
ACAD
70
0
0
ENDTAB
0
TABLE
2
DIMSTYLE
5
A
100
AcDbSymbolTable
70
1
0
ENDTAB
0
TABLE
2
BLOCK_RECORD
5
1
100
AcDbSymbolTable
70
1
0
BLOCK_RECORD
5
1F
100
AcDbSymbolTableRecord
100
AcDbBlockTableRecord
2
*MODEL_SPACE
0
BLOCK_RECORD
5
1B
100
AcDbSymbolTableRecord
100
AcDbBlockTableRecord
2
*PAPER_SPACE
0
ENDTAB
0
ENDSEC
0
SECTION
2
BLOCKS
0
BLOCK
5
20
100
AcDbEntity
100
AcDbBlockBegin
2
*MODEL_SPACE
0
ENDBLK
5
21
100
AcDbEntity
100
AcDbBlockEnd
0
BLOCK
5
1C
100
AcDbEntity
100
AcDbBlockBegin
2
*PAPER_SPACE
0
ENDBLK
5
1D
100
AcDbEntity
100
AcDbBlockEnd
0
ENDSEC
0
SECTION
2
ENTITIES
0
LWPOLYLINE
5
100
100
AcDbEntity
8
0
100
AcDbPolyline
90
46
70
1
43
0.0
10
-0.10000000000000002
20
35.099999999999994
10
-0.10000000000000002
20
-0.099999999999997868
10
75.099999999999994
20
-0.10000000000000081
10
75.099999999999994
20
35.099999999999881
10
64.708578643762692
20
35.099999999999937
10
63.650000000000013
20
34.041421356237294
10
63.650000000000006
20
20.100000000000065
10
59.849999999999994
20
20.100000000000044
10
59.849999999999994
20
34.041421356237322
10
58.791421356237315
20
35.100000000000009
10
55.569292929476958
20
35.100000000000009
10
54.5107142857143
20
34.041421356237329
10
54.510714285714315
20
20.100000000000016
10
50.7607142857143
20
20.100000000000012
10
50.7607142857143
20
34.041421356237336
10
49.702135641951614
20
35.100000000000009
10
46.319292929476994
20
35.100000000000009
10
45.2607142857143
20
34.041421356237315
10
45.260714285714307
20
20.100000000000009
10
41.560714285714297
20
20.100000000000001
10
41.560714285714297
20
34.041421356237322
10
40.502135641951618
20
35.100000000000009
10
37.119292929477034
20
35.100000000000001
10
36.06071428571434
20
34.041421356237301
10
36.060714285714326
20
20.099999999999998
10
32.410714285714327
20
20.099999999999998
10
32.410714285714327
20
34.041421356237315
10
31.352135641951651
20
35.099999999999994
10
27.969292929476982
20
35.099999999999987
10
26.910714285714313
20
34.041421356237315
10
26.910714285714317
20
20.099999999999998
10
23.310714285714305
20
20.099999999999998
10
23.310714285714297
20
34.041421356237315
10
22.252135641951615
20
35.100000000000001
10
18.869292929476998
20
35.100000000000001
10
17.810714285714301
20
34.041421356237301
10
17.810714285714308
20
20.099999999999998
10
14.2607142857143
20
20.099999999999998
10
14.26071428571429
20
34.041421356237308
10
13.202135641951593
20
35.100000000000001
10
9.6519375152513422
20
35.100000000000001
10
8.5999999999999961
20
33.785078105935817
10
8.6000000000000014
20
20.099999999999998
10
5.1000000000000014
20
20.099999999999998
10
5.0999999999999996
20
34.041421356237301
10
4.0414213562373114
20
35.099999999999994
0
ENDSEC
0
SECTION
2
OBJECTS
0
DICTIONARY
5
C
100
AcDbDictionary
3
ACAD_GROUP
350
D
3
ACAD_MLINESTYLE
350
17
0
DICTIONARY
5
D
100
AcDbDictionary
0
DICTIONARY
5
1A
330
C
100
AcDbDictionary
0
DICTIONARY
5
17
100
AcDbDictionary
0
ENDSEC
0
EOF
